<?xml version="1.0" standalone="no"?>
<svg version="1.1" id="Layer_1" xmlns="http://www.w3.org/2000/svg" xmlns:xlink="http://www.w3.org/1999/xlink" x="0px" y="0px" viewBox="0 0 595.276 595.276" enable-background="new 0 0 595.276 595.276" xml:space="preserve">
<path id="color_x5F_4_48_" fill="#fbf7f5" d="M240.833,384.659l9.102,1.241c0,0,0,3.31-4.965,4.965
	c-4.965,1.655-9.102,1.655-9.102,1.655l-18.129,10.006l0,0c-1.789,1.244-3.674,2.592-5.647,4.049
	c-27.593-19.022-59.46-42.159-62.283-51.706c0.194-2.134,26.277-45.064,47.409-70.521c2.62-3.156,5.165-6.048,7.574-8.556
	c1.443,4.403,4.668,9.87,10.687,16.93c-2.823,6.024-5.728,11.355-8.367,14.568c-1.377,1.676,1.958,8.001,6.991,14.744
	c-3.823,2.724-8.345,6.307-13.035,10.786c-5.482,5.235-11.192,11.694-16.286,19.466c4.929,7.573,26.5,30.304,39.798,42.244
	l6.322-7.388l7.447-8.275c0,0,0.974,0,2.259-0.029c1.86-0.041,4.379-0.14,5.602-0.385
	C248.28,378.039,247.452,382.59,240.833,384.659z M248.497,269.432c0,0-0.155,0.198-0.41,0.556
	c-1.006,22.625,3.081,41.778,3.081,41.778c0.375-6.878,3.384-15.451,7.425-24.088C248.106,283.465,248.497,269.432,248.497,269.432z
	 M282.485,248.26c-3.539,4.587-14.256,19.951-22.184,35.868c-1.737-2.884-2.426-7.595-0.012-15.318
	c6.206-19.86,19.239-32.272,4.965-46.546c0,0-4.344-14.274,16.136-19.239c8.07-1.956,14.11-6.613,18.474-11.536l13.693,11.694
	l5.266,4.496c-8.999,15.826-16.446,17.067-20.17,22.963c-1.41,2.233-5.111,0.897-7.72-0.209c-4.073-1.726-8.702,0.7-9.422,5.065
	C280.871,239.383,280.823,243.982,282.485,248.26z M293.059,215.224c1.314,1.374,0.737,4.126,5.225,5.941
	c3.273,1.324,6.188,1.269,7.491-1.87c0.406-0.978,2.547-1.836,1.058-2.469c-1.153-0.49-3.377,0.029-3.464-1.55
	c-4.657-0.46-10.645-1.969-11.671-3.632C291.646,211.607,291.246,213.327,293.059,215.224z M323.292,239.477
	c-7.751-4.355-13.453-6.352-15.64-4.8c-32.037,23.33-1.138,95.885,23.583,62.061c27.928,5.586,52.442,30.1,52.442,30.1
	c-18.8,45.454-42.101,59.576-52.549,63.27c-3.175,1.123-5.165,1.283-5.478,1.066c-1.226-0.849-1.934-6.162-2.129-9.603
	c-0.019-0.333-0.035-0.655-0.044-0.948c-0.103-3.31-1.655-6.723-1.655-6.723l-4.758,9.206c-7.344-6.413-22.239-10.654-23.583-11.171
	c-1.345-0.517-7.137-0.724-7.137-0.724s-3.931,0.621-7.447,3.103c-3.517,2.482-8.999,3.62-8.999,3.62
	c1.552,2.483,7.447,1.655,8.792,1.034c1.345-0.62,4.034-1.448,5.586-1.345c1.513,0.101,7.539,2.164,8.218,2.266
	c-0.697-0.068-7.406-0.516-8.839-0.611c-1.552-0.104-7.344,3.413-9.309,4.137c-1.965,0.724-11.171,5.482-11.171,5.482
	s0.931,1.034,3.827,1.345c2.896,0.31,10.447-3.62,12.516-3.827c2.069-0.207,10.033-0.31,10.033-0.31s-3.517,1.138-4.655,1.034
	c-1.138-0.103-9.723,2.379-11.999,3.62c-2.276,1.241-8.792,3-8.792,3c1.345,2.689,7.758,1.862,11.792,0.207
	c4.034-1.655,10.654-1.035,10.654-1.035c-5.851-0.325-10.34,2.634-13.289,4.344c-2.681,1.555-4.088,3.103-4.088,3.103s0,0,5.585,0
	c5.586,0,25.445-5.586,35.996,4.965c10.55,10.551,21.928,2.069,21.928,2.069c6.64-1.873,13.112-4.735,19.338-8.272
	c39.165-22.249,68.582-71.373,68.582-71.373C415.658,309.965,353.704,256.565,323.292,239.477z"></path>
<path id="color_x5F_3_51_" fill="#0F2E4C" d="M239.13,368.442c-4.214,10.73-16.766,17.563-16.284,16.63
	c0,0,17.574-10.551-13.457-42.822c-3.323-3.456-6.062-6.582-8.319-9.431c4.69-4.479,9.211-8.062,13.035-10.786
	c3.819,5.115,8.613,10.47,13.075,14.218C233.523,341.58,237.218,357.174,239.13,368.442z M220.363,144.727
	c-20.771-10.248-40.768-18.891-58.523-25.396c-2.208,1.661-4.386,3.361-6.531,5.1c-1.879,11.965-2.867,37.087,16.427,56.318
	C185.662,166.094,202.102,153.85,220.363,144.727z M156.782,117.51c0.108,0.038,0.273,0.088,0.476,0.145L156.782,117.51z
	 M156.778,117.509L156.778,117.509c-0.001,0-0.428,1.413-0.924,3.866c1.223-0.971,2.462-1.924,3.705-2.87
	C158.629,118.17,157.695,117.831,156.778,117.509z M314.017,199.872c-4.42-3.103-8.915-6.162-13.462-9.177
	c-17.219-11.42-35.228-22.169-53.142-31.93c-8.295-4.52-16.568-8.83-24.731-12.894c-18.612,9.086-35.352,21.426-49.473,36.286
	c9.823,9.157,24.494,16.826,46.232,20.841c-7.052,8.551-16.618,24.203-9.483,40.137c-6.639,7.228-19.153,23.898-12.74,41.213
	c2.62-3.156,5.165-6.048,7.574-8.556c1.443,4.403,4.668,9.87,10.687,16.93c1.732,2.032,3.687,4.191,5.907,6.5
	c31.031,32.272,13.457,42.822,13.457,42.822c-0.739,1.432,29.256-15.429,12.609-36.616c-12.276-15.624-1.637-32.244,0.635-35.439
	c0.255-0.358,0.41-0.556,0.41-0.556s-0.391,14.033,10.096,18.247c2.556,1.027,5.75,1.479,9.764,0.992c0,0-5.326-0.009-8.056-4.542
	c-1.737-2.884-2.426-7.595-0.012-15.318c6.206-19.86,19.239-32.272,4.965-46.546c0,0-4.344-14.274,16.136-19.239
	c8.07-1.956,14.11-6.613,18.474-11.536l13.693,11.694l5.266,4.496c-8.999,15.826-16.446,17.067-20.17,22.963
	c-1.41,2.233-5.111,0.897-7.72-0.209c-4.073-1.726-8.702,0.7-9.422,5.065c-0.641,3.883-0.688,8.482,0.974,12.761
	c0.624-0.809,1.033-1.295,1.155-1.377c1.241-0.827,20.142-9.004,24.012-12.207c2.187-1.552,7.889,0.444,15.64,4.8
	c-0.579-3.994,1.013-7.846,7.943-11.626c7.166-3.909,9.537-7.668,9.575-12.15c-7.264-3.445-14.941-7.821-23.052-13.276
	C316.518,201.589,315.278,200.757,314.017,199.872z M192.014,81.641c0,0-0.509-1.528,1.274-2.944
	c1.783-1.415,7.613-3.085,11.434-5.264c3.821-2.179,5.519-5.349,6.312-6.198c0.792-0.849,1.896-1.528,2.943-1.585
	c0.007,0,0.017-0.001,0.024-0.001c-0.009-0.523-0.013-1.009-0.013-1.009c0.019-0.717,0.044-1.609,0.706-2.226
	c0.278-0.26,2.349-1.419,2.736-2.519c0.085-0.243,0.325-1.093-0.183-1.82c-0.275-0.394-1.281-1.255-2.613-0.504
	c-0.987,0.556-0.951,1.555-0.936,1.981l0.001,0.036c0.011,0.323-0.243,0.594-0.566,0.605c-0.325,0.012-0.594-0.242-0.605-0.566
	l-0.001-0.034c-0.05-1.418,0.465-2.442,1.531-3.043c1.871-1.055,3.506-0.067,4.148,0.854c0.557,0.799,0.68,1.875,0.327,2.878
	c-0.533,1.519-2.867,2.825-3.042,2.988c-0.303,0.283-0.318,0.826-0.334,1.402c0,0,0.004,0.467,0.013,0.97
	c0.091,0.002,0.176,0.005,0.24,0.008c1.047,0.057,2.151,0.736,2.943,1.585s2.491,4.019,6.311,6.198
	c3.821,2.179,9.651,3.849,11.434,5.264c1.783,1.415,1.274,2.944,1.274,2.944H192.014z M196.089,80.679
	c1.061,0.021,17.044,0.003,17.044,0.003c5.829,0.007,19.043,0.019,20.165-0.003c1.444-0.028,1.691-0.293,1.332-0.567
	c-1.117-0.853-14.068-7.443-16.361-8.462c-1.78-0.791-5.373-0.791-7.152,0c-2.292,1.019-15.244,7.609-16.361,8.462
	C194.398,80.386,194.646,80.651,196.089,80.679z M104.89,354.061c-7.671,0.799-11.276,0.932-19.206,0c0,0-1.243,4.208-1.631,5.495
	c-2.603,8.592-1.046,11.615,1.025,20.037c0.364,1.484,1.924,8.913,2.298,11.161c0,5.726,1.433,12.115,0.776,17.482
	c-0.257,2.12-0.392,4.55,0.458,6.062c1.869,0.253,3.597,0.393,6.001-0.407c0-0.735-0.217-10.586-0.345-14.778
	c-0.384-3.689-0.207-6.795-0.058-10.491c-0.065-5.749,0.285-11.312,0.574-17.054c0.048-0.447,0.962-0.447,1.009,0
	c0.29,5.742,0.641,11.304,0.575,17.054c0.148,3.696,0.326,6.802-0.057,10.491c-0.068,2.195-0.345,14.044-0.345,14.778
	c0.314,0.287,2.09,0.988,6,0.407c0.849-1.512,0.715-3.942,0.455-6.062c-0.655-5.367,0.778-11.756,0.778-17.482
	c0.636-3.814,1.375-7.395,2.297-11.161c2.071-8.422,3.629-11.445,1.027-20.037C106.133,358.269,105.015,354.572,104.89,354.061z
	 M501.102,391.017c-4.604-1.184-9.267,2.6-14.112,2.459c-12.979-0.378-16.672-15.999-18.311-20.304
	c-3.09-8.114-6.21-11.283-6.21-11.283l-0.008,0.007c-6.757,2.118-12.089,19.49-5.702,23.946c0.328,1.393,3.436,14.995,1.111,20.81
	h3.986c0,0-1.311-10.85,0.234-16.736c0.52-1.981,2.831-2.889,4.59-1.841c4.622,2.752,12.734,8.857,14.566,11.451
	c0.74,1.047,1.9,2.806,2.765,4.132c0.72,1.104,1.354,1.957,3.797,1.827c20.899,0,27.124-1.553,27.124-3.042
	C514.931,400.955,508.031,399.602,501.102,391.017z M524.86,260.471c-1.384-1.266-6.439-5.376-9.148-12.125
	c-0.898-4.149-0.742-7.029-3.551-11.838c0,0-1.982-2.479-0.048-7.681c0.046-0.069,0.091-0.137,0.137-0.206
	c0.596-0.544,3.972-3.975,2.376-10.708c-0.103-0.433,0.332-0.789,0.725-0.609c0.187,0.085,0.448,0.097,0.61-0.029l5.664-4.392
	c0.153-0.119,0.229-0.309,0.198-0.501c-0.178-1.095-1.148-4.673-6.26-5.099c0,0-4.11,0-5.802-2.683
	c-0.235-0.372-0.806-0.28-0.936,0.14c-0.691,2.231-1.689,7.016,1.02,10.419c0.291,0.366-0.031,0.896-0.495,0.835
	c-1.886-0.246-4.87-0.131-6.313,2.601c-0.201,0.379-0.744,0.369-0.945-0.01c-1.447-2.724-4.43-2.836-6.313-2.59
	c-0.477,0.062-0.766-0.487-0.468-0.865c2.681-3.404,1.684-8.172,0.995-10.395c-0.134-0.433-0.706-0.493-0.95-0.111
	c-1.701,2.659-5.787,2.659-5.787,2.659c-5.112,0.426-6.082,4.003-6.26,5.099c-0.031,0.191,0.044,0.382,0.198,0.501l5.664,4.392
	c0.162,0.126,0.424,0.114,0.61,0.029c0.394-0.181,0.828,0.175,0.726,0.609c-1.596,6.732,1.779,10.164,2.376,10.708
	c0.046,0.069,0.091,0.137,0.137,0.206c1.934,5.202-0.049,7.681-0.049,7.681c-2.714,4.647-2.541,7.374-3.456,11.416
	c-2.815,7.837-9.243,12.547-9.243,12.547S503.78,271.216,524.86,260.471z M120.91,236.41c0.337,0.712,0.512,1.491,0.512,2.279v6.856
	c0,1.109-0.347,2.191-0.992,3.094c0,0-4.465,4.822-6.184,4.822H78.916c-1.719,0-6.184-4.822-6.184-4.822
	c-0.645-0.903-0.992-1.985-0.992-3.094v-6.856c0-0.788,0.175-1.566,0.512-2.279l6.03-12.73c0.68-1.436,1.956-2.463,3.448-2.859
	v-0.12h2.443c-0.002-0.023-0.013-5.389-0.013-5.389c0-6.849,5.572-12.421,12.421-12.421c6.849,0,12.421,5.572,12.421,12.421v5.323
	c0,0.023-0.011,0.043-0.013,0.066h2.443c0,0,2.768,1.542,3.448,2.979L120.91,236.41z M85.936,219.748h21.292v-4.436
	c0-5.87-4.776-10.646-10.646-10.646c-5.871,0-10.646,4.776-10.646,10.646V219.748z M87.045,246.364h-3.549v3.864h3.549V246.364z
	 M87.045,240.523h-3.549v4.066h3.549V240.523z M87.045,223.307h-3.549v15.442h3.549V223.307z M109.668,246.364h-3.549v3.864h3.549
	V246.364z M109.668,240.523h-3.549v4.066h3.549V240.523z M109.668,223.307h-3.549v15.442h3.549V223.307z M409.353,99.618
	c-0.433,3.114-2.543,5.748-5.992,6.281c-7.781,1.201-15.889-4.296-16.026-4.405c9.604,4.106,18.692,4.017,19.398,0.391
	c1.174-6.033-2.764-11.876-8.797-13.05c-3.627-0.706-8.019,3.136-10.535,5.47c-13.679-3.73-19.583-0.811-20.321,2.98
	c-0.912,4.684,9.491,10.19,25.722,13.811c18.791,4.192,31.247,1.875,32.159-2.809C425.562,105.194,417.051,102.622,409.353,99.618z"></path>
<path id="color_x5F_2_49_" fill="#b73131" d="M331.128,390.109c-3.175,1.123-5.165,1.283-5.478,1.066
	c-1.226-0.849-1.934-6.162-2.129-9.603C325.253,387.265,327.437,388.787,331.128,390.109z M297.787,217.764
	c-0.926-0.652-2.037-0.809-2.481-0.35c-0.445,0.459-0.055,1.36,0.871,2.012c0.926,0.652,2.037,0.809,2.481,0.35
	C299.102,219.318,298.712,218.417,297.787,217.764z M402.892,389.253c-0.939,5.884-4.285,13.189-13.056,14.824
	c8.716,1.544,11.56,8.905,13.056,14.824c1.85-5.919,4.693-13.559,13.892-14.824C406.916,402.442,403.961,394.579,402.892,389.253z
	 M442.516,323.66c2.472-7.91,6.273-18.12,18.565-19.811c-13.187-2.185-17.137-12.693-18.565-19.811
	c-1.254,7.864-5.726,17.626-17.448,19.811C436.716,305.913,440.516,315.75,442.516,323.66z M558.625,373.233
	c-0.931,5.835-4.019,12.919-11.644,15.62c0.586-1.652,1.165-3.306,1.719-4.972c0.205-0.616-0.128-1.282-0.744-1.487
	c-0.621-0.203-1.282,0.13-1.487,0.744c-0.659,1.978-1.339,3.945-2.043,5.902c-0.063,0.177-0.071,0.357-0.05,0.531
	c-0.061,0.012-0.116,0.03-0.178,0.042c0.07,0.012,0.131,0.033,0.2,0.046c0.077,0.393,0.334,0.742,0.737,0.887
	c0.132,0.047,0.266,0.069,0.398,0.069c0.353,0,0.687-0.162,0.909-0.436c7.881,2.49,10.665,9.815,12.182,15.815
	c2.044-6.54,5.187-14.982,15.351-16.38C563.073,387.807,559.806,379.119,558.625,373.233z M344.49,332.755
	c-0.752,4.715-3.433,10.569-10.462,11.879c6.984,1.237,9.263,7.136,10.462,11.879c1.482-4.743,3.761-10.865,11.132-11.879
	C347.715,343.325,345.346,337.024,344.49,332.755z M401.454,275.468c1.734-5.549,4.401-12.712,13.025-13.898
	c-9.252-1.533-12.023-8.905-13.025-13.899c-0.88,5.517-4.017,12.366-12.241,13.899C397.384,263.017,400.051,269.918,401.454,275.468
	z M320.214,106.43c1.516-4.851,3.847-11.113,11.386-12.15c-8.088-1.34-10.51-7.785-11.386-12.15
	c-0.769,4.823-3.512,10.81-10.701,12.15C316.656,95.546,318.987,101.579,320.214,106.43z M174.958,214.049
	c-0.769,4.823-3.512,10.81-10.701,12.15c7.144,1.265,9.475,7.299,10.701,12.15c1.516-4.851,3.847-11.113,11.386-12.15
	C178.256,224.86,175.834,218.415,174.958,214.049z M452.267,462.925c1.516-4.851,3.847-11.113,11.386-12.15
	c-8.088-1.34-10.51-7.785-11.386-12.15c-0.769,4.823-3.512,10.81-10.701,12.15C448.709,452.04,451.04,458.073,452.267,462.925z
	 M58.982,436.012c-8.088-1.34-10.51-7.784-11.387-12.15c-0.769,4.823-3.512,10.81-10.701,12.15
	c7.144,1.266,9.475,7.299,10.701,12.15C49.112,443.31,51.443,437.048,58.982,436.012z M24.784,256.54
	c1.516-4.851,3.847-11.113,11.387-12.15c-8.088-1.34-10.51-7.785-11.387-12.15c-0.769,4.823-3.512,10.81-10.701,12.15
	C21.227,245.656,23.558,251.689,24.784,256.54z M152.42,424.626c-0.895,5.611-4.086,12.578-12.451,14.137
	c8.312,1.472,11.024,8.492,12.451,14.137c1.764-5.645,4.476-12.931,13.249-14.137C156.258,437.204,153.439,429.705,152.42,424.626z
	 M285.892,68.593c1.599-5.116,4.057-11.72,12.008-12.814c-8.53-1.413-11.084-8.21-12.008-12.814
	c-0.811,5.086-3.703,11.401-11.286,12.814C282.14,57.114,284.598,63.477,285.892,68.593z M572.944,237.996
	c-0.804,5.043-3.672,11.303-11.189,12.704c7.469,1.323,9.907,7.632,11.189,12.704c1.585-5.073,4.022-11.62,11.906-12.704
	C576.393,249.299,573.86,242.561,572.944,237.996z M478.054,94.653c7.47,1.323,9.907,7.632,11.189,12.704
	c1.585-5.073,4.022-11.62,11.906-12.704c-8.457-1.401-10.99-8.139-11.906-12.704C488.438,86.992,485.571,93.252,478.054,94.653z
	 M450.912,182.399c1.915-6.128,4.859-14.037,14.382-15.347c-10.216-1.692-13.276-9.833-14.382-15.347
	c-0.972,6.092-4.436,13.655-13.517,15.347C446.418,168.651,449.363,176.271,450.912,182.399z M149.647,284.039
	c-1.099,6.891-5.018,15.446-15.29,17.36c10.207,1.808,13.538,10.428,15.29,17.36c2.166-6.932,5.497-15.879,16.269-17.36
	C154.36,299.485,150.899,290.277,149.647,284.039z M38.256,349.471c-0.296,0.266-0.464,0.663-0.384,1.083
	c0.398,2.072,0.82,4.135,1.267,6.19c0.119,0.551,0.607,0.926,1.148,0.926c0.083,0,0.167-0.009,0.251-0.027
	c0.634-0.138,1.038-0.765,0.9-1.399c-0.443-2.036-0.862-4.081-1.256-6.134c-0.07-0.361-0.306-0.637-0.606-0.799
	c4.639-0.904,8.143-4.985,8.143-9.889c0-5.567-4.513-10.079-10.079-10.079h-0.571c-0.147-1.338-0.301-2.674-0.428-4.019
	c-0.061-0.647-0.643-1.116-1.282-1.061c-0.647,0.061-1.121,0.635-1.061,1.282c0.12,1.27,0.267,2.533,0.405,3.798H1.682
	c0.719,6.79,1.662,13.513,2.83,20.158H37.64C37.848,349.502,38.051,349.483,38.256,349.471z M230.737,28.745h75.638
	c4.709,0,8.527-3.817,8.527-8.527s-3.818-8.526-8.527-8.526h-40.993c-2.185,0-3.956-1.771-3.956-3.956s1.771-3.956,3.956-3.956h0.59
	c2.445,0,4.644-1.035,6.199-2.685c-11.336,0.961-22.493,2.547-33.432,4.743c0.312,0.565,0.505,1.206,0.505,1.897
	c0,2.185-1.771,3.956-3.956,3.956h-4.551c-4.709,0-8.527,3.817-8.527,8.526S226.028,28.745,230.737,28.745z M79.85,150.195
	c-0.353,0.51-0.716,1.012-1.065,1.525c-0.366,0.537-0.227,1.269,0.31,1.634c0.203,0.138,0.433,0.204,0.661,0.204
	c0.377,0,0.746-0.18,0.974-0.514c1.174-1.723,2.366-3.433,3.579-5.127c0.379-0.528,0.257-1.263-0.271-1.64
	c-0.278-0.2-0.611-0.253-0.921-0.189c0.428-1.063,0.67-2.222,0.67-3.439c0-5.085-4.117-9.208-9.195-9.208h-3.199
	c-2.356,0-4.266-1.913-4.266-4.272c0-2.359,1.91-4.272,4.266-4.272h69.932c5.078,0,9.195-4.122,9.195-9.208
	c0-5.085-4.117-9.208-9.195-9.208h-28.222c-2.036,0-3.686-1.653-3.686-3.691s1.65-3.691,3.686-3.691h2.497
	c5.078,0,9.195-4.123,9.195-9.208c0-5.085-4.117-9.208-9.195-9.208H93.901c-22.012,20.679-40.871,44.667-55.792,71.173H74.59
	C76.547,151.856,78.358,151.239,79.85,150.195z M550.097,196.1c0,6.716,5.444,12.16,12.16,12.16h19.355
	c-2.6-8.27-5.56-16.379-8.846-24.321h-10.509C555.541,183.939,550.097,189.384,550.097,196.1z M528.271,429.982
	c0.01-0.017,0.02-0.035,0.03-0.052c0.319-0.566,0.12-1.283-0.447-1.601c-0.563-0.317-1.283-0.12-1.601,0.447
	c-0.39,0.693-0.798,1.374-1.195,2.063c-3.458,1.564-5.887,5.014-5.935,9.058c-0.003,0.245,0.014,0.484,0.028,0.725
	c-0.884,1.393-1.771,2.783-2.68,4.158c-0.359,0.542-0.21,1.271,0.332,1.629c0.2,0.132,0.425,0.196,0.647,0.196
	c0.381,0,0.755-0.186,0.982-0.528c0.489-0.739,0.96-1.491,1.442-2.236c1.49,3.629,5.037,6.204,9.207,6.254l0.697,0.008
	c2.582,0.031,4.651,2.149,4.62,4.731c-0.031,2.582-2.149,4.651-4.731,4.62l-48.455-0.579c-5.566-0.066-10.132,4.392-10.199,9.958
	c-0.066,5.566,4.392,10.132,9.958,10.199l8.426,0.101c-0.005,0.005-0.012,0.007-0.017,0.012c-1.425,1.527-2.866,3.035-4.326,4.526
	c-0.453,0.464-0.446,1.21,0.018,1.664c0.229,0.224,0.526,0.335,0.823,0.335c0.305,0,0.61-0.118,0.841-0.353
	c1.472-1.505,2.926-3.028,4.363-4.568c0.424-0.454,0.407-1.148-0.011-1.596l42.039,0.502c11.856-15.316,22.246-31.819,30.971-49.302
	l-34.776-0.415C528.967,429.935,528.617,429.95,528.271,429.982z M588.43,330.872c-5.078,0-9.195,4.122-9.195,9.208
	c0,5.086,4.117,9.208,9.195,9.208h2.369c1.088-6.218,1.974-12.504,2.669-18.849c-0.559,0.269-1.178,0.433-1.839,0.433H588.43z
	 M595.276,297.638c0,8.609-0.387,17.127-1.103,25.551c-0.712-0.533-1.586-0.86-2.543-0.86h-30.371
	c-0.167,2.046-0.357,4.086-0.572,6.117c-0.063,0.604-0.574,1.053-1.168,1.053c-0.041,0-0.083-0.002-0.125-0.006
	c-0.646-0.068-1.114-0.647-1.045-1.293c0.206-1.95,0.386-3.908,0.549-5.871h-33.192c-0.725,7.638-1.828,15.166-3.286,22.569
	c10.32,9.966,16.757,23.928,16.757,39.374c0,30.198-24.567,54.766-54.766,54.766c-1.448,0-2.877-0.074-4.297-0.185
	c-9.747,12.819-20.813,24.579-32.994,35.084c7.775,8.245,15.105,16.559,21.951,24.746c0.793-0.686,1.593-1.362,2.379-2.058
	c0.487-0.43,1.228-0.385,1.66,0.102c0.43,0.485,0.385,1.228-0.101,1.66c-0.804,0.712-1.624,1.405-2.436,2.107
	c6.932,8.358,13.355,16.563,19.233,24.413c-51.853,43.889-118.913,70.369-192.167,70.369c-70.255,0-134.812-24.356-185.723-65.065
	c4.865-9.852,9.926-19.087,15.106-27.736c-0.629-0.532-1.268-1.052-1.891-1.59c-0.493-0.424-0.547-1.166-0.124-1.659
	c0.425-0.491,1.166-0.546,1.659-0.123c0.522,0.449,1.057,0.884,1.583,1.33c6.146-10.116,12.447-19.407,18.77-27.934
	c-1.832-1.61-3.634-3.252-5.413-4.918c-1.449,3.788-5.109,6.483-9.407,6.483h-30.9c0.965,1.09,1.927,2.181,2.909,3.256
	c0.438,0.48,0.405,1.224-0.075,1.661c-0.226,0.207-0.51,0.308-0.793,0.308c-0.319,0-0.636-0.13-0.868-0.383
	c-1.422-1.556-2.826-3.126-4.211-4.712c-0.035-0.04-0.047-0.089-0.075-0.131H83.74c-2.582,0-4.676,2.094-4.676,4.676
	s2.093,4.676,4.676,4.676h0.697c5.567,0,10.079,4.513,10.079,10.079c0,5.567-4.513,10.079-10.079,10.079h-1.68
	c-14.492-15.117-27.394-31.765-38.461-49.669h38.076c-0.077-0.432,0.083-0.89,0.463-1.162c0.525-0.38,1.26-0.26,1.642,0.27
	c0.215,0.3,0.44,0.593,0.656,0.892h43.031c-5.183-5.735-10.077-11.734-14.667-17.972c-5.701,2.016-11.827,3.125-18.21,3.125
	c-8.339,0-16.244-1.881-23.325-5.229c0.696,1.18,1.392,2.36,2.108,3.526c0.34,0.554,0.167,1.279-0.386,1.618
	c-0.192,0.118-0.404,0.174-0.614,0.174c-0.395,0-0.782-0.198-1.003-0.56c-1.104-1.797-2.186-3.607-3.246-5.431
	c-0.182-0.313-0.181-0.664-0.062-0.975c-16.824-9.357-28.238-27.312-28.238-47.89c0-5.067,0.706-9.969,2-14.63
	c-0.184-0.15-0.329-0.353-0.396-0.6c-0.547-2.039-1.07-4.084-1.569-6.141c-0.153-0.632,0.234-1.268,0.866-1.419
	c0.633-0.149,1.267,0.233,1.42,0.865c0.282,1.161,0.589,2.313,0.886,3.469c4.883-13.6,14.997-24.727,27.91-30.935
	c-0.643-4.257-1.171-8.551-1.577-12.88H1c-0.564-6.961-0.88-13.991-0.958-21.079c1.685-0.743,2.864-2.423,2.864-4.382
	c0-1.949-1.167-3.618-2.837-4.368c0.127-7.095,0.506-14.128,1.122-21.094h34.107c5.707,0,10.334,4.626,10.334,10.334
	c0,5.598-4.455,10.146-10.012,10.317c-0.025,0.768-0.063,1.532-0.081,2.301c-0.015,0.639-0.539,1.148-1.175,1.148
	c-0.01,0-0.019,0-0.029,0c-0.649-0.016-1.163-0.555-1.148-1.204c0.016-0.675,0.05-1.346,0.072-2.02
	c-1.998,0.578-3.469,2.4-3.469,4.585c0,2.135,1.405,3.922,3.333,4.543c-0.001-0.252-0.009-0.503-0.009-0.755
	c0-0.649,0.526-1.194,1.176-1.194c0.65,0,1.176,0.509,1.176,1.158h-1.176l1.176,0.005c0,0.35,0.011,0.689,0.012,1.037h33.582
	c-0.001-0.248-0.007-0.495-0.007-0.743c0-8.23,0.472-16.35,1.326-24.358c-14.106-7.719-24.452-21.467-27.573-37.753
	c-0.472,1.953-0.925,3.914-1.354,5.884c-0.12,0.55-0.607,0.926-1.148,0.926c-0.083,0-0.167-0.008-0.252-0.027
	c-0.634-0.139-1.037-0.765-0.899-1.4c0.449-2.061,0.921-4.114,1.417-6.156c0.153-0.63,0.786-1.015,1.421-0.865
	c0.244,0.059,0.436,0.205,0.59,0.381c-0.494-2.951-0.764-5.977-0.764-9.066c0-30.198,24.568-54.766,54.766-54.766
	c3.601,0,7.119,0.359,10.528,1.026c3.787-5.708,7.824-11.234,12.094-16.568c-2.281-3.86-5.799-7.102-11.561-8.122
	c10.062-1.875,13.9-10.255,14.976-17.004c0.812,4.048,2.592,9.364,6.982,13.042c8.103-8.798,16.878-16.965,26.255-24.41
	c1.223-0.971,2.462-1.924,3.705-2.87c-0.93-0.335-1.864-0.673-2.781-0.996c0,0,0,0-0.001,0c0.001,0,0.003,0.001,0.005,0.001
	c0.108,0.038,0.273,0.088,0.476,0.145c0.538,0.152,1.397,0.367,2.569,0.645c7.754-5.886,15.885-11.297,24.363-16.176
	c-7.258-7.588-11.731-17.861-11.731-29.165c0-1.056,0.052-2.1,0.129-3.138c-0.137,0.053-0.276,0.106-0.418,0.106
	c-0.417,0-0.821-0.222-1.034-0.615c-0.31-0.571-0.099-1.285,0.472-1.595c0.422-0.229,0.85-0.447,1.274-0.672
	c2.885-20.497,20.531-36.321,41.812-36.321c10.806,0,20.672,4.084,28.15,10.783c1.988-0.419,3.984-0.818,5.987-1.192
	c0.639-0.116,1.253,0.302,1.372,0.941c0.119,0.639-0.302,1.253-0.94,1.372c-1.456,0.272-2.903,0.57-4.351,0.866
	c7.427,7.615,12.016,18.011,12.016,29.464c0,0.849-0.033,1.69-0.082,2.527c13.324-2.429,27.038-3.724,41.054-3.724
	c19.386,0,38.202,2.457,56.19,7.017c7.909-15.571,24.074-26.272,42.702-26.272c17.557,0,32.927,9.505,41.26,23.634
	c1.389,0.872,2.777,1.746,4.149,2.643c0.543,0.355,0.695,1.084,0.34,1.628c-0.226,0.345-0.602,0.533-0.986,0.533
	c-0.221,0-0.443-0.062-0.643-0.192c-0.219-0.143-0.443-0.28-0.663-0.422c2.828,6.104,4.417,12.894,4.417,20.051
	c0,7.486-1.731,14.575-4.808,20.892c20.94,16.611,38.894,36.811,52.97,59.652c3.162-0.57,6.412-0.884,9.736-0.884
	c12.715,0,24.421,4.367,33.727,11.665c-0.582-1.276-1.16-2.555-1.762-3.82c-0.279-0.587-0.03-1.289,0.557-1.568
	c0.588-0.279,1.287-0.029,1.567,0.556c0.908,1.905,1.791,3.823,2.652,5.753c0.214,0.478,0.071,1.012-0.299,1.344
	c11.235,10.037,18.324,24.621,18.324,40.836c0,3.829-0.398,7.566-1.15,11.175c0.271,0.163,0.479,0.428,0.548,0.763
	c0.422,2.059,0.821,4.126,1.199,6.202c0.115,0.639-0.31,1.251-0.948,1.367c-0.07,0.013-0.142,0.019-0.211,0.019
	c-0.557,0-1.053-0.398-1.156-0.966c-0.177-0.98-0.378-1.952-0.566-2.929c-4.448,14.909-15.08,27.175-28.916,33.798
	c0.391,5.411,0.619,10.867,0.619,16.376c0,1.104-0.027,2.201-0.043,3.302h23.213c2.035,0,3.686-1.652,3.686-3.691
	c0-2.038-1.65-3.691-3.686-3.691h-2.498c-5.078,0-9.195-4.122-9.195-9.208c0-5.085,4.117-9.208,9.195-9.208h11.459
	c-0.173-2.061-0.37-4.115-0.59-6.161c-0.07-0.646,0.398-1.226,1.044-1.295c0.632-0.079,1.224,0.398,1.294,1.043
	c0.225,2.089,0.425,4.185,0.602,6.288c0.004,0.044-0.013,0.082-0.014,0.125h33.406C595.04,284.571,595.276,291.076,595.276,297.638z
	 M351.473,100.382c0,24.989,20.33,45.319,45.319,45.319c24.989,0,45.32-20.33,45.32-45.319c0-8.31-2.259-16.098-6.179-22.801
	c-0.017-0.01-0.033-0.021-0.049-0.031c-0.017-0.051-0.04-0.101-0.056-0.152c-7.893-13.354-22.432-22.334-39.036-22.334
	C371.803,55.062,351.473,75.393,351.473,100.382z M214.695,112.466c21.784,0,39.506-17.722,39.506-39.506
	c0-21.784-17.722-39.506-39.506-39.506c-21.784,0-39.507,17.722-39.507,39.506C175.188,94.744,192.911,112.466,214.695,112.466z
	 M162.411,118.899c12.385,2.825,43.269,9.333,79.445,16.853c6.302-2.149,12.768-3.939,19.37-5.36
	c10.185-13.791,28.653-20.528,46.761-15.519c9.309,2.575,17.081,7.881,22.684,14.73c31.703,6.064,60.376,20.744,83.486,41.513
	c0.661,0.132,1.224,0.244,1.661,0.33c10.948,2.155,17.502,11.148,18.164,20.678c6.265,7.843,11.878,16.228,16.733,25.088
	c6.102-17.93,21.248-31.705,39.983-35.861c-13.82-22.26-31.365-41.97-51.787-58.23c-8.107,14.955-23.946,25.134-42.12,25.134
	c-26.398,0-47.874-21.476-47.874-47.874c0-7.036,1.538-13.715,4.276-19.738c-17.707-4.454-36.224-6.846-55.294-6.846
	c-14.08,0-27.855,1.315-41.23,3.786c-2.311,21.12-20.251,37.611-41.976,37.611c-11.226,0-21.435-4.411-29.008-11.581
	C177.604,108.238,169.835,113.35,162.411,118.899z M332.522,132.04c4.958,7.012,7.786,15.364,7.797,24.025
	c31.471,6.454,57.883,11.837,69.843,14.249C388.348,151.489,361.78,138.042,332.522,132.04z M245.842,136.58
	c3.501,0.727,7.041,1.462,10.618,2.203c0.874-2.086,1.919-4.064,3.101-5.936C254.915,133.909,250.337,135.15,245.842,136.58z
	 M109.247,174.906c18.552,4.411,33.472,18.279,39.367,36.215c6.596-10.963,14.356-21.147,23.122-30.371
	c13.926-14.655,30.366-26.899,48.628-36.022c-20.771-10.248-40.768-18.891-58.523-25.396c-2.208,1.661-4.386,3.361-6.531,5.1
	c-8.558,6.939-16.6,14.485-24.065,22.576c1.972,1.276,4.368,2.253,7.31,2.74c-10.551,1.451-13.814,10.215-15.935,17.004
	c-0.563-2.228-1.3-4.631-2.379-6.921C116.374,164.696,112.709,169.727,109.247,174.906z M70.71,273.111
	c0.581,0.482,1.222,0.887,1.909,1.207c-0.001,0.009-0.002,0.018-0.003,0.026c7.178,3.741,15.326,5.87,23.965,5.87
	c28.694,0,52.038-23.344,52.038-52.038c0-28.694-23.344-52.038-52.038-52.038c-28.694,0-52.038,23.344-52.038,52.038
	c0,19.272,10.539,36.118,26.147,45.111C70.698,273.229,70.703,273.17,70.71,273.111z M84.265,301.354
	c5.707,0,10.334,4.626,10.334,10.334c0,5.707-4.627,10.334-10.334,10.334H72.101c0.381,4.035,0.871,8.038,1.461,12.01
	c6.665-2.892,14.01-4.505,21.726-4.505c12.468,0,23.97,4.196,33.185,11.24c-3.057-12.897-4.7-26.336-4.7-40.155
	c0-8.878,0.692-17.595,1.981-26.12c-8.453,5.344-18.454,8.451-29.172,8.451c-8.709,0-16.944-2.053-24.262-5.686
	c-0.793,7.682-1.234,15.467-1.234,23.355c0,0.248,0.007,0.495,0.007,0.743H84.265z M147.325,384.292
	c0-28.693-23.344-52.038-52.037-52.038c-28.694,0-52.038,23.345-52.038,52.038c0,28.693,23.344,52.038,52.038,52.038
	C123.981,436.33,147.325,412.986,147.325,384.292z M183.015,431.299c-13.025-11.471-24.323-24.852-33.463-39.702
	c-2.663,19.877-16.02,36.404-34.083,43.591c4.815,6.512,9.963,12.763,15.432,18.717h1.297c5.567,0,10.079,4.513,10.079,10.079
	c0,0.457-0.041,0.903-0.1,1.344c1.986,1.879,4.005,3.721,6.057,5.528C160.069,455.087,171.953,442.004,183.015,431.299z
	 M405.446,434.836c10.632-8.538,20.24-18.3,28.59-29.087c-2.824-6.599-4.392-13.858-4.392-21.477
	c0-24.119,15.678-44.631,37.373-51.918c1.932-10.293,2.975-20.896,2.975-31.742c0-7.804-0.536-15.483-1.549-23.014
	c-12.57-10.044-20.645-25.488-20.645-42.791c0-5.148,0.729-10.127,2.064-14.854c-4.606-8.643-9.929-16.846-15.887-24.536
	c-0.434,5.822-3.107,11.576-8.382,15.846c-17.408,14.09-44.814,23.392-84.784,4.437c-7.264-3.445-14.941-7.821-23.052-13.276
	c-1.241-0.834-2.48-1.667-3.741-2.552c-4.42-3.103-8.915-6.162-13.462-9.177c-17.219-11.42-35.228-22.169-53.142-31.93
	c-8.295-4.52-16.568-8.83-24.731-12.894c-18.612,9.086-35.352,21.426-49.473,36.286c-9.083,9.559-17.089,20.149-23.805,31.587
	c1.259,4.601,1.944,9.437,1.944,14.432c0,18.489-9.219,34.855-23.291,44.776c-1.463,9.009-2.248,18.242-2.248,27.658
	c0,14.587,1.841,28.749,5.273,42.284c11.607,10.05,18.972,24.875,18.972,41.397c0,1.343-0.066,2.67-0.161,3.989
	c9.296,15.635,20.988,29.683,34.58,41.624c10.177-9.721,19.612-17.417,27.62-23.33c1.973-1.457,3.857-2.805,5.647-4.049l0,0
	l18.129-10.006c0,0,4.137,0,9.102-1.655c4.965-1.655,4.965-4.965,4.965-4.965l-9.102-1.241c6.62-2.069,7.447-6.62,5.379-6.206
	c-1.223,0.245-3.742,0.344-5.602,0.385c-0.251-2.201-0.727-5.957-1.48-10.395c-1.911-11.268-5.606-26.862-11.951-32.191
	c-4.462-3.748-9.257-9.103-13.075-14.218c-5.033-6.742-8.368-13.068-6.991-14.744c2.639-3.212,5.544-8.544,8.367-14.568
	c1.732,2.032,3.687,4.191,5.907,6.5c31.031,32.272,13.457,42.822,13.457,42.822c-0.739,1.432,29.256-15.429,12.609-36.616
	c-12.276-15.624-1.637-32.244,0.635-35.439c-1.006,22.625,3.081,41.778,3.081,41.778c0.375-6.878,3.384-15.451,7.425-24.088
	c2.556,1.027,5.75,1.479,9.764,0.992c0,0-5.326-0.009-8.056-4.542c7.928-15.918,18.645-31.281,22.184-35.868
	c0.624-0.809,1.033-1.295,1.155-1.377c1.241-0.827,20.142-9.004,24.012-12.207c-32.037,23.33-1.138,95.885,23.583,62.061
	c-12.723,28.238-15.102,43.65-9.413,77.163l-4.758,9.206c-7.344-6.413-22.239-10.654-23.583-11.171
	c-1.345-0.517-7.137-0.724-7.137-0.724s-3.931,0.621-7.447,3.103c-3.517,2.482-8.999,3.62-8.999,3.62
	c1.552,2.483,7.447,1.655,8.792,1.034c1.345-0.62,4.034-1.448,5.586-1.345c1.513,0.101,7.539,2.164,8.218,2.266
	c-0.697-0.068-7.406-0.516-8.839-0.611c-1.552-0.104-7.344,3.413-9.309,4.137c-1.965,0.724-11.171,5.482-11.171,5.482
	s0.931,1.034,3.827,1.345c2.896,0.31,10.447-3.62,12.516-3.827c2.069-0.207,10.033-0.31,10.033-0.31s-3.517,1.138-4.655,1.034
	c-1.138-0.103-9.723,2.379-11.999,3.62c-2.276,1.241-8.792,3-8.792,3c1.345,2.689,7.758,1.862,11.792,0.207
	c4.034-1.655,10.654-1.035,10.654-1.035c-5.851-0.325-10.34,2.634-13.289,4.344c-2.681,1.555-4.088,3.103-4.088,3.103s0,0,5.585,0
	c5.586,0,25.445-5.586,35.996,4.965c10.55,10.551,21.928,2.069,21.928,2.069c6.64-1.873,13.112-4.735,19.338-8.272
	C370.965,408.96,388.846,421.246,405.446,434.836z M477.736,438.616c-18.889-2.307-34.841-14.254-42.75-30.77
	c-8.207,10.468-17.589,19.969-27.937,28.319c13.833,11.45,26.763,23.777,38.667,36.299
	C457.504,462.306,468.24,450.963,477.736,438.616z M484.41,332.233c-28.693,0-52.038,23.345-52.038,52.038
	c0,28.693,23.345,52.038,52.038,52.038s52.038-23.345,52.038-52.038C536.448,355.578,513.104,332.233,484.41,332.233z
	 M524.715,300.611c0-5.207-0.2-10.367-0.552-15.486c-6.631,2.857-13.931,4.447-21.598,4.447c-11.875,0-22.87-3.811-31.852-10.258
	c0.857,6.982,1.314,14.086,1.314,21.297c0,10.603-0.991,20.974-2.819,31.057c4.83-1.398,9.928-2.163,15.203-2.163
	c13.897,0,26.592,5.212,36.259,13.771c1.315-6.879,2.324-13.866,3-20.948h-42.887c-5.078,0-9.195-4.122-9.195-9.208
	c0-5.085,4.117-9.208,9.195-9.208h43.891C524.689,302.813,524.715,301.715,524.715,300.611z M554.603,234.807
	c0-28.694-23.345-52.038-52.038-52.038s-52.038,23.344-52.038,52.038c0,28.694,23.345,52.038,52.038,52.038
	S554.603,263.501,554.603,234.807z M408.111,21.191c-2.146-0.858-4.305-1.69-6.476-2.5c1.579,1.545,3.736,2.5,6.118,2.5H408.111z
	 M140.383,384.292c0,24.905-20.19,45.095-45.095,45.095c-24.906,0-45.095-20.19-45.095-45.095c0-24.906,20.19-45.095,45.095-45.095
	C120.193,339.197,140.383,359.387,140.383,384.292z M106.523,359.556c-0.39-1.287-1.507-4.984-1.633-5.495
	c-7.671,0.799-11.276,0.932-19.206,0c0,0-1.243,4.208-1.631,5.495c-2.603,8.592-1.046,11.615,1.025,20.037
	c0.364,1.484,1.924,8.913,2.298,11.161c0,5.726,1.433,12.115,0.776,17.482c-0.257,2.12-0.392,4.55,0.458,6.062
	c1.869,0.253,3.597,0.393,6.001-0.407c0-0.735-0.217-10.586-0.345-14.778c-0.384-3.689-0.207-6.795-0.058-10.491
	c-0.065-5.749,0.285-11.312,0.574-17.054c0.048-0.447,0.962-0.447,1.009,0c0.29,5.742,0.641,11.304,0.575,17.054
	c0.148,3.696,0.326,6.802-0.057,10.491c-0.068,2.195-0.345,14.044-0.345,14.778c0.314,0.287,2.09,0.988,6,0.407
	c0.849-1.512,0.715-3.942,0.455-6.062c-0.655-5.367,0.778-11.756,0.778-17.482c0.636-3.814,1.375-7.395,2.297-11.161
	C107.567,371.172,109.125,368.148,106.523,359.556z M529.505,384.271c0,24.905-20.19,45.095-45.095,45.095
	s-45.095-20.19-45.095-45.095c0-24.905,20.19-45.095,45.095-45.095S529.505,359.366,529.505,384.271z M514.931,402.444
	c0-1.488-6.901-2.841-13.83-11.426c-4.604-1.184-9.267,2.6-14.112,2.459c-12.979-0.378-16.672-15.999-18.311-20.304
	c-3.09-8.114-6.21-11.283-6.21-11.283l-0.008,0.007c-6.757,2.118-12.089,19.49-5.702,23.946c0.328,1.393,3.436,14.995,1.111,20.81
	h3.986c0,0-1.311-10.85,0.234-16.736c0.52-1.981,2.831-2.889,4.59-1.841c4.622,2.752,12.734,8.857,14.566,11.451
	c0.74,1.047,1.9,2.806,2.765,4.132c0.72,1.104,1.354,1.957,3.797,1.827C508.707,405.485,514.931,403.932,514.931,402.444z
	 M547.66,234.807c0,24.906-20.19,45.095-45.095,45.095c-24.905,0-45.095-20.19-45.095-45.095c0-24.905,20.19-45.095,45.095-45.095
	C527.47,189.712,547.66,209.902,547.66,234.807z M524.86,260.471c-1.384-1.266-6.439-5.376-9.148-12.125
	c-0.898-4.149-0.742-7.029-3.551-11.838c0,0-1.982-2.479-0.048-7.681c0.046-0.069,0.091-0.137,0.137-0.206
	c0.596-0.544,3.972-3.975,2.376-10.708c-0.103-0.433,0.332-0.789,0.725-0.609c0.187,0.085,0.448,0.097,0.61-0.029l5.664-4.392
	c0.153-0.119,0.229-0.309,0.198-0.501c-0.178-1.095-1.148-4.673-6.26-5.099c0,0-4.11,0-5.802-2.683
	c-0.235-0.372-0.806-0.28-0.936,0.14c-0.691,2.231-1.689,7.016,1.02,10.419c0.291,0.366-0.031,0.896-0.495,0.835
	c-1.886-0.246-4.87-0.131-6.313,2.601c-0.201,0.379-0.744,0.369-0.945-0.01c-1.447-2.724-4.43-2.836-6.313-2.59
	c-0.477,0.062-0.766-0.487-0.468-0.865c2.681-3.404,1.684-8.172,0.995-10.395c-0.134-0.433-0.706-0.493-0.95-0.111
	c-1.701,2.659-5.787,2.659-5.787,2.659c-5.112,0.426-6.082,4.003-6.26,5.099c-0.031,0.191,0.044,0.382,0.198,0.501l5.664,4.392
	c0.162,0.126,0.424,0.114,0.61,0.029c0.394-0.181,0.828,0.175,0.726,0.609c-1.596,6.732,1.779,10.164,2.376,10.708
	c0.046,0.069,0.091,0.137,0.137,0.206c1.934,5.202-0.049,7.681-0.049,7.681c-2.714,4.647-2.541,7.374-3.456,11.416
	c-2.815,7.837-9.243,12.547-9.243,12.547S503.78,271.216,524.86,260.471z M359.099,100.382c0-20.818,16.876-37.694,37.694-37.694
	c20.818,0,37.694,16.876,37.694,37.694c0,20.818-16.876,37.694-37.694,37.694C375.975,138.075,359.099,121.199,359.099,100.382z
	 M367.079,97.283c-0.912,4.684,9.491,10.19,25.722,13.811c18.791,4.192,31.247,1.875,32.159-2.809
	c0.602-3.091-7.91-5.663-15.607-8.668c-0.433,3.114-2.543,5.748-5.992,6.281c-7.781,1.201-15.889-4.296-16.026-4.405
	c9.604,4.106,18.692,4.017,19.398,0.391c1.174-6.033-2.764-11.876-8.797-13.05c-3.627-0.706-8.019,3.136-10.535,5.47
	C373.721,90.573,367.817,93.492,367.079,97.283z M180.951,72.96c0-18.636,15.107-33.743,33.743-33.743
	c18.636,0,33.743,15.108,33.743,33.743s-15.107,33.743-33.743,33.743C196.058,106.703,180.951,91.596,180.951,72.96z
	 M192.014,81.641h45.361c0,0,0.509-1.528-1.274-2.944c-1.783-1.415-7.613-3.085-11.434-5.264c-3.821-2.179-5.519-5.349-6.311-6.198
	s-1.896-1.528-2.943-1.585c-0.064-0.004-0.148-0.006-0.24-0.008c-0.009-0.503-0.013-0.97-0.013-0.97
	c0.016-0.575,0.03-1.119,0.334-1.402c0.175-0.163,2.508-1.469,3.042-2.988c0.352-1.003,0.23-2.079-0.327-2.878
	c-0.643-0.921-2.278-1.909-4.148-0.854c-1.066,0.601-1.582,1.625-1.531,3.043l0.001,0.034c0.011,0.323,0.28,0.577,0.605,0.566
	c0.323-0.011,0.576-0.282,0.566-0.605l-0.001-0.036c-0.015-0.426-0.051-1.425,0.936-1.981c1.331-0.751,2.337,0.11,2.613,0.504
	c0.507,0.727,0.268,1.577,0.183,1.82c-0.387,1.1-2.457,2.259-2.736,2.519c-0.662,0.618-0.686,1.51-0.706,2.226
	c0,0,0.004,0.485,0.013,1.009c-0.007,0-0.017,0.001-0.024,0.001c-1.047,0.057-2.151,0.736-2.943,1.585
	c-0.792,0.849-2.491,4.019-6.312,6.198c-3.821,2.179-9.651,3.849-11.434,5.264C191.504,80.113,192.014,81.641,192.014,81.641z
	 M196.089,80.679c1.061,0.021,17.044,0.003,17.044,0.003c5.829,0.007,19.043,0.019,20.165-0.003
	c1.444-0.028,1.691-0.293,1.332-0.567c-1.117-0.853-14.068-7.443-16.361-8.462c-1.78-0.791-5.373-0.791-7.152,0
	c-2.292,1.019-15.244,7.609-16.361,8.462C194.398,80.386,194.646,80.651,196.089,80.679z M83.496,250.228h3.549v-3.864h-3.549
	V250.228z M106.119,238.749h3.549v-15.442h-3.549V238.749z M96.582,273.272c-24.905,0-45.095-20.19-45.095-45.095
	c0-24.905,20.19-45.095,45.095-45.095c24.905,0,45.095,20.19,45.095,45.095C141.677,253.082,121.487,273.272,96.582,273.272z
	 M78.916,253.461h35.332c1.719,0,6.184-4.822,6.184-4.822c0.645-0.903,0.992-1.985,0.992-3.094v-6.856
	c0-0.788-0.175-1.566-0.512-2.279l-6.03-12.73c-0.68-1.436-3.448-2.979-3.448-2.979h-2.443c0.002-0.023,0.013-0.042,0.013-0.066
	v-5.323c0-6.849-5.572-12.421-12.421-12.421c-6.849,0-12.421,5.572-12.421,12.421c0,0,0.012,5.366,0.013,5.389h-2.443v0.12
	c-1.493,0.396-2.768,1.423-3.448,2.859l-6.03,12.73c-0.337,0.712-0.512,1.491-0.512,2.279v6.856c0,1.109,0.347,2.191,0.992,3.094
	C72.732,248.639,77.197,253.461,78.916,253.461z M107.228,215.313c0-5.87-4.776-10.646-10.646-10.646
	c-5.871,0-10.646,4.776-10.646,10.646v4.436h21.292V215.313z M83.496,238.749h3.549v-15.442h-3.549V238.749z M106.119,250.228h3.549
	v-3.864h-3.549V250.228z M106.119,244.589h3.549v-4.066h-3.549V244.589z M83.496,244.589h3.549v-4.066h-3.549V244.589z
	 M139.662,88.157c-0.521,0.388-0.627,1.125-0.239,1.646c0.231,0.31,0.585,0.473,0.943,0.473c0.245,0,0.492-0.076,0.703-0.233
	c1.346-1.004,2.709-1.986,4.075-2.964c3.544,3.424,5.211,8.252,6.27,12.439c2.069-6.622,5.251-15.168,15.541-16.584
	c-4.495-0.745-7.693-2.654-10.003-5.047c-0.024-0.053-0.03-0.111-0.063-0.161c-0.12-0.188-0.292-0.311-0.479-0.403
	c-2.99-3.397-4.326-7.631-4.997-10.972c-1.05,6.583-4.793,14.755-14.606,16.584c2.586,0.458,4.698,1.383,6.454,2.605
	C142.058,86.405,140.851,87.27,139.662,88.157z M161.245,76.203c0.207,0,0.418-0.055,0.608-0.17
	c1.788-1.083,3.588-2.147,5.402-3.189c0.563-0.324,0.757-1.043,0.434-1.606c-0.324-0.562-1.04-0.759-1.606-0.434
	c-1.829,1.052-3.647,2.124-5.45,3.217c-0.555,0.337-0.732,1.06-0.396,1.616C160.459,76.002,160.847,76.203,161.245,76.203z
	 M120.061,105.873c0.232,0.257,0.552,0.387,0.872,0.387c0.282,0,0.564-0.101,0.79-0.305c1.547-1.401,3.111-2.784,4.691-4.148
	c0.492-0.425,0.547-1.167,0.123-1.659c-0.424-0.492-1.167-0.545-1.659-0.123c-1.595,1.377-3.174,2.772-4.735,4.186
	C119.662,104.648,119.625,105.392,120.061,105.873z M130.458,98.038c0.263,0,0.528-0.088,0.746-0.268
	c1.612-1.326,3.242-2.634,4.885-3.922c0.511-0.401,0.602-1.14,0.2-1.651c-0.401-0.511-1.139-0.601-1.651-0.201
	c-1.659,1.3-3.303,2.619-4.929,3.958c-0.502,0.413-0.574,1.154-0.161,1.655C129.781,97.892,130.118,98.038,130.458,98.038z
	 M75.3,156.976c-1.14,1.765-2.261,3.544-3.36,5.337c-0.339,0.554-0.165,1.278,0.388,1.618c0.192,0.118,0.404,0.173,0.613,0.173
	c0.396,0,0.782-0.2,1.005-0.561c1.089-1.778,2.198-3.541,3.329-5.289c0.352-0.546,0.196-1.274-0.349-1.626
	C76.38,156.273,75.652,156.43,75.3,156.976z M98.043,126.747c-1.382,1.587-2.744,3.191-4.089,4.811
	c-0.414,0.5-0.346,1.242,0.154,1.657c0.22,0.182,0.486,0.271,0.751,0.271c0.338,0,0.673-0.145,0.906-0.425
	c1.332-1.606,2.684-3.196,4.053-4.769c0.426-0.49,0.375-1.233-0.115-1.659C99.211,126.204,98.469,126.256,98.043,126.747z
	 M34.976,268.797c-0.077,0.645,0.383,1.23,1.028,1.307c0.048,0.006,0.094,0.009,0.141,0.009c0.588,0,1.095-0.44,1.166-1.037
	c0.248-2.077,0.518-4.147,0.813-6.209c0.092-0.643-0.354-1.239-0.997-1.331c-0.649-0.096-1.24,0.355-1.331,0.997
	C35.498,264.613,35.225,266.701,34.976,268.797z M37.73,257.646c0.066,0.011,0.132,0.016,0.196,0.016
	c0.564,0,1.062-0.407,1.159-0.981c0.346-2.063,0.715-4.117,1.109-6.163c0.122-0.638-0.295-1.254-0.933-1.377
	c-0.642-0.121-1.255,0.294-1.377,0.933c-0.397,2.064-0.77,4.136-1.119,6.218C36.658,256.931,37.09,257.538,37.73,257.646z
	 M68.711,167.728c-1.054,1.815-2.087,3.645-3.099,5.488c-0.313,0.569-0.105,1.285,0.464,1.597c0.179,0.099,0.374,0.145,0.565,0.145
	c0.416,0,0.818-0.22,1.032-0.61c1.004-1.827,2.028-3.64,3.073-5.44c0.326-0.561,0.135-1.281-0.427-1.607
	C69.756,166.974,69.036,167.166,68.711,167.728z M89.983,136.463c-1.304,1.65-2.589,3.316-3.854,4.999
	c-0.39,0.519-0.286,1.256,0.233,1.647c0.212,0.16,0.46,0.236,0.706,0.236c0.357,0,0.71-0.162,0.94-0.469
	c1.254-1.667,2.527-3.319,3.821-4.954c0.402-0.509,0.316-1.249-0.194-1.652C91.126,135.865,90.384,135.954,89.983,136.463z
	 M62.644,178.777c-0.966,1.863-1.91,3.739-2.833,5.628c-0.286,0.584-0.044,1.288,0.54,1.573c0.166,0.082,0.342,0.12,0.516,0.12
	c0.435,0,0.853-0.243,1.057-0.66c0.914-1.872,1.85-3.731,2.807-5.578c0.299-0.576,0.074-1.286-0.503-1.585
	C63.654,177.975,62.943,178.199,62.644,178.777z M317.845,38.944c2.088,0.16,4.166,0.343,6.238,0.551
	c0.04,0.004,0.079,0.006,0.118,0.006c0.596,0,1.109-0.452,1.169-1.059c0.065-0.647-0.407-1.223-1.054-1.288
	c-2.089-0.209-4.187-0.394-6.292-0.555c-0.648-0.041-1.213,0.435-1.263,1.083C316.712,38.329,317.198,38.895,317.845,38.944z
	 M486.076,114.702c-0.458-0.463-1.202-0.468-1.665-0.013c-0.463,0.456-0.468,1.2-0.013,1.663c0.485,0.492,0.955,0.997,1.435,1.492
	H474.12c-5.775,0-10.456,4.681-10.456,10.456c0,5.775,4.681,10.456,10.456,10.456h29.967c0.304,0.388,0.617,0.768,0.919,1.158
	c0.232,0.299,0.58,0.456,0.931,0.456c0.252,0,0.505-0.08,0.719-0.247c0.427-0.33,0.544-0.89,0.35-1.367h17.381
	c2.679,0,4.851,2.172,4.851,4.85c0,2.679-2.172,4.851-4.851,4.851h-0.723c-5.775,0-10.456,4.681-10.456,10.456
	c0,5.775,4.681,10.456,10.456,10.456h1.114c0.352,0.609,0.716,1.212,1.064,1.824c0.217,0.382,0.615,0.596,1.024,0.596
	c0.197,0,0.395-0.049,0.58-0.153c0.564-0.32,0.762-1.038,0.442-1.603c-0.126-0.223-0.26-0.441-0.387-0.663h38.784
	c-8.747-18.287-19.312-35.534-31.451-51.524h-45.735C488.096,116.793,487.096,115.738,486.076,114.702z M445.801,82.601
	c-0.367,0.535-0.232,1.268,0.303,1.636c1.718,1.183,3.42,2.385,5.108,3.606c0.208,0.151,0.449,0.224,0.688,0.224
	c0.365,0,0.725-0.169,0.954-0.486c0.381-0.526,0.263-1.262-0.263-1.643c-1.702-1.233-3.422-2.446-5.153-3.639
	C446.9,81.928,446.17,82.067,445.801,82.601z M514.369,148.65c-1.21-1.727-2.441-3.438-3.692-5.134
	c-0.385-0.523-1.124-0.637-1.645-0.249c-0.523,0.385-0.635,1.122-0.249,1.645c1.24,1.682,2.459,3.378,3.661,5.089
	c0.228,0.326,0.592,0.501,0.964,0.501c0.233,0,0.468-0.069,0.674-0.213C514.613,149.916,514.743,149.182,514.369,148.65z
	 M456.01,89.921c-0.394,0.517-0.294,1.255,0.223,1.648c1.659,1.264,3.303,2.546,4.933,3.847c0.217,0.174,0.475,0.257,0.733,0.257
	c0.346,0,0.688-0.151,0.92-0.442c0.405-0.508,0.324-1.248-0.184-1.653c-1.643-1.313-3.302-2.606-4.978-3.881
	C457.141,89.302,456.402,89.404,456.01,89.921z M471.532,103.75c0.326,0,0.65-0.135,0.883-0.4c0.429-0.487,0.381-1.23-0.107-1.659
	c-1.58-1.39-3.177-2.761-4.789-4.115c-0.495-0.419-1.238-0.354-1.656,0.145c-0.418,0.498-0.353,1.239,0.145,1.657
	c1.598,1.341,3.181,2.701,4.747,4.078C470.979,103.653,471.256,103.75,471.532,103.75z M480.771,112.277
	c0.307,0,0.615-0.12,0.845-0.358c0.452-0.466,0.439-1.211-0.027-1.663c-1.512-1.464-3.043-2.911-4.591-4.339
	c-0.477-0.439-1.224-0.411-1.661,0.067c-0.44,0.478-0.411,1.221,0.066,1.662c1.534,1.415,3.05,2.848,4.55,4.299
	C480.181,112.167,480.475,112.277,480.771,112.277z M305.407,35.937c-0.665-0.046-1.192,0.493-1.21,1.142
	c-0.018,0.649,0.492,1.191,1.142,1.209c2.092,0.061,4.178,0.145,6.258,0.255c0.021,0.001,0.042,0.002,0.063,0.002
	c0.621,0,1.14-0.487,1.173-1.114c0.034-0.649-0.464-1.202-1.113-1.237C309.622,36.083,307.518,35.998,305.407,35.937z
	 M299.088,38.181c0.646,0,1.173-0.522,1.176-1.169c0.004-0.65-0.52-1.18-1.169-1.183l-1.458-0.004c-1.623,0-3.242,0.015-4.859,0.043
	c-0.649,0.012-1.166,0.548-1.155,1.197c0.012,0.642,0.536,1.155,1.176,1.155c0.007,0,0.014,0,0.021,0
	c1.603-0.029,3.208-0.044,4.817-0.044l1.444,0.004C299.084,38.181,299.086,38.181,299.088,38.181z M330.304,40.193
	c2.067,0.258,4.128,0.539,6.179,0.843c1.46,2.813,4.39,4.737,7.774,4.737h16.263c0.182,0.045,0.366,0.084,0.547,0.129
	c0.094,0.023,0.19,0.034,0.284,0.034c0.204,0,0.393-0.067,0.566-0.163h4.519c-0.05,0.086-0.107,0.167-0.134,0.267
	c-0.172,0.627,0.197,1.274,0.823,1.446c2.018,0.552,4.022,1.128,6.019,1.728c0.113,0.034,0.227,0.05,0.338,0.05
	c0.507,0,0.974-0.328,1.127-0.838c0.186-0.622-0.166-1.278-0.789-1.465c-1.37-0.412-2.753-0.798-4.133-1.188h80.192
	c2.245,0,4.065,1.822,4.065,4.07c0,2.248-1.82,4.07-4.065,4.07h-3.048c-4.839,0-8.761,3.928-8.761,8.774
	c0,4.846,3.923,8.774,8.761,8.774h44.268C467.983,51.672,441.81,35.354,413.37,23.34c0.178,0.421,0.276,0.883,0.276,1.368
	c0,1.942-1.572,3.517-3.512,3.517h-65.877c-4.839,0-8.762,3.928-8.762,8.774c0,0.529,0.055,1.044,0.144,1.548
	c-1.678-0.242-3.357-0.479-5.046-0.688c-0.649-0.089-1.232,0.378-1.313,1.021C329.201,39.525,329.66,40.113,330.304,40.193z
	 M273.858,36.88c-2.103,0.187-4.198,0.399-6.286,0.635c-0.645,0.072-1.109,0.655-1.036,1.3c0.068,0.601,0.577,1.044,1.167,1.044
	c0.044,0,0.089-0.002,0.134-0.008c2.07-0.233,4.147-0.444,6.23-0.63c0.647-0.058,1.125-0.629,1.067-1.275
	C275.076,37.299,274.501,36.814,273.858,36.88z M255.055,39.235c-0.641,0.103-1.076,0.708-0.972,1.349
	c0.094,0.577,0.592,0.988,1.159,0.988c0.063,0,0.126-0.005,0.19-0.015c2.055-0.333,4.12-0.642,6.192-0.927
	c0.644-0.088,1.094-0.681,1.005-1.325c-0.087-0.644-0.681-1.092-1.324-1.005C259.213,38.586,257.13,38.898,255.055,39.235z
	 M280.309,38.74c2.078-0.136,4.162-0.247,6.252-0.333c0.649-0.028,1.154-0.576,1.126-1.224c-0.027-0.648-0.594-1.156-1.223-1.126
	c-2.11,0.087-4.212,0.2-6.309,0.337c-0.649,0.042-1.139,0.602-1.097,1.25c0.04,0.622,0.558,1.1,1.172,1.1
	C280.257,38.743,280.283,38.743,280.309,38.74z M379.846,48.849c-0.618-0.203-1.282,0.136-1.483,0.753
	c-0.201,0.618,0.137,1.282,0.754,1.483c1.986,0.649,3.963,1.321,5.927,2.015c0.129,0.046,0.262,0.067,0.392,0.067
	c0.484,0,0.938-0.301,1.109-0.784c0.217-0.612-0.104-1.285-0.716-1.5C383.846,50.182,381.853,49.504,379.846,48.849z
	 M557.631,258.195c-0.641,0.1-1.08,0.702-0.98,1.344c0.322,2.057,0.62,4.123,0.893,6.197c0.079,0.592,0.584,1.023,1.165,1.023
	c0.051,0,0.103-0.003,0.155-0.01c0.644-0.085,1.097-0.676,1.013-1.32c-0.276-2.093-0.577-4.177-0.902-6.254
	C558.874,258.533,558.259,258.091,557.631,258.195z M480.62,488.096c-1.494,1.457-3.007,2.897-4.536,4.319
	c-0.475,0.442-0.504,1.186-0.061,1.661c0.231,0.249,0.546,0.376,0.861,0.376c0.287,0,0.574-0.104,0.801-0.315
	c1.543-1.434,3.07-2.887,4.577-4.356c0.466-0.454,0.476-1.199,0.022-1.663C481.83,487.65,481.086,487.643,480.62,488.096z
	 M511.219,456.44c1.241-1.697,2.464-3.41,3.668-5.138c0.371-0.533,0.24-1.266-0.292-1.638c-0.535-0.37-1.266-0.241-1.638,0.293
	c-1.193,1.714-2.404,3.412-3.637,5.093c-0.383,0.525-0.269,1.26,0.254,1.645c0.21,0.153,0.453,0.227,0.694,0.227
	C510.63,456.921,510.988,456.754,511.219,456.44z M529.353,175.092c-0.574,0.307-0.789,1.019-0.482,1.592
	c0.986,1.842,1.953,3.698,2.897,5.566c0.207,0.41,0.62,0.646,1.051,0.646c0.177,0,0.359-0.041,0.529-0.127
	c0.58-0.293,0.812-1,0.519-1.58c-0.953-1.885-1.927-3.756-2.922-5.615C530.639,175.002,529.926,174.786,529.353,175.092z
	 M555.709,346.794c-0.369,2.058-0.76,4.109-1.176,6.15c-0.13,0.637,0.281,1.258,0.917,1.387c0.079,0.016,0.159,0.024,0.236,0.024
	c0.547,0,1.037-0.384,1.151-0.941c0.419-2.06,0.816-4.129,1.188-6.207c0.114-0.639-0.311-1.25-0.951-1.365
	C556.439,345.728,555.823,346.154,555.709,346.794z M553.21,359.064c-0.466,2.038-0.957,4.066-1.47,6.087
	c-0.161,0.629,0.219,1.269,0.85,1.429c0.097,0.025,0.194,0.037,0.291,0.037c0.525,0,1.003-0.355,1.138-0.886
	c0.519-2.037,1.013-4.086,1.484-6.142c0.145-0.633-0.25-1.264-0.885-1.409C553.996,358.035,553.356,358.431,553.21,359.064z
	 M550.126,371.198c-0.563,2.006-1.148,4.004-1.756,5.991c-0.19,0.622,0.159,1.279,0.779,1.469c0.115,0.035,0.231,0.052,0.345,0.052
	c0.504,0,0.969-0.325,1.124-0.831c0.613-2.006,1.204-4.021,1.773-6.044c0.176-0.626-0.19-1.275-0.814-1.451
	C550.941,370.209,550.302,370.575,550.126,371.198z M557.899,341.973c0.57,0,1.071-0.416,1.16-0.997
	c0.321-2.077,0.616-4.162,0.889-6.255c0.084-0.644-0.37-1.234-1.014-1.318c-0.653-0.079-1.234,0.371-1.318,1.014
	c-0.27,2.074-0.563,4.141-0.881,6.2c-0.1,0.641,0.341,1.242,0.982,1.341C557.779,341.969,557.84,341.973,557.899,341.973z
	 M529.74,424.882c0.176,0.094,0.364,0.138,0.55,0.138c0.421,0,0.829-0.226,1.04-0.625c0.986-1.854,1.951-3.723,2.895-5.604
	c0.291-0.581,0.058-1.287-0.523-1.578c-0.582-0.296-1.287-0.056-1.579,0.523c-0.935,1.864-1.892,3.716-2.87,5.556
	C528.948,423.865,529.166,424.577,529.74,424.882z M541.008,402.317c0.461,0,0.899-0.273,1.086-0.726
	c0.805-1.939,1.586-3.889,2.345-5.853c0.234-0.605-0.068-1.286-0.674-1.521c-0.609-0.235-1.287,0.066-1.521,0.674
	c-0.751,1.944-1.526,3.877-2.323,5.799c-0.249,0.599,0.035,1.287,0.636,1.536C540.704,402.289,540.857,402.317,541.008,402.317z
	 M535.921,413.794c0.442,0,0.864-0.249,1.065-0.674c0.896-1.899,1.771-3.811,2.622-5.735c0.263-0.595-0.004-1.289-0.598-1.552
	c-0.591-0.264-1.29,0.003-1.552,0.598c-0.845,1.906-1.712,3.801-2.6,5.684c-0.277,0.588-0.025,1.289,0.561,1.566
	C535.583,413.758,535.753,413.794,535.921,413.794z M79.914,449.716c0.228,0,0.459-0.066,0.661-0.204
	c0.537-0.367,0.675-1.099,0.309-1.635c-1.177-1.726-2.333-3.465-3.469-5.219c-0.354-0.544-1.082-0.704-1.627-0.349
	c-0.545,0.353-0.701,1.082-0.348,1.626c1.147,1.771,2.313,3.527,3.501,5.268C79.169,449.536,79.538,449.716,79.914,449.716z
	 M112.885,488.016c0.458-0.462,0.455-1.206-0.006-1.663c-1.481-1.472-2.945-2.96-4.39-4.465c-0.45-0.47-1.194-0.486-1.663-0.034
	c-0.468,0.45-0.484,1.194-0.034,1.663c1.458,1.519,2.935,3.022,4.43,4.505c0.229,0.228,0.529,0.342,0.829,0.342
	C112.353,488.364,112.655,488.248,112.885,488.016z M121.181,497.015c0.321,0,0.641-0.131,0.873-0.388
	c0.435-0.481,0.397-1.225-0.085-1.66c-1.549-1.4-3.082-2.817-4.596-4.253c-0.471-0.446-1.216-0.425-1.662,0.045
	c-0.447,0.471-0.427,1.215,0.044,1.663c1.528,1.448,3.074,2.878,4.637,4.289C120.618,496.915,120.9,497.015,121.181,497.015z"></path>
<path id="color_x5F_1_48_" fill="transparent" d="M434.037,405.749c-2.824-6.599-4.392-13.858-4.392-21.477
	c0-24.119,15.678-44.631,37.373-51.918c1.932-10.293,2.975-20.896,2.975-31.742c0-7.804-0.536-15.483-1.549-23.014
	c-12.57-10.044-20.645-25.488-20.645-42.791c0-5.148,0.729-10.127,2.064-14.854c-4.606-8.643-9.929-16.846-15.887-24.536
	c-0.434,5.822-3.107,11.576-8.382,15.846c-17.408,14.09-44.814,23.392-84.784,4.437c-0.038,4.482-2.409,8.242-9.575,12.15
	c-6.93,3.78-8.522,7.632-7.943,11.626c30.412,17.089,92.366,70.488,97.312,88.292c0,0-29.417,49.124-68.582,71.373
	c18.944,9.818,36.824,22.104,53.425,35.693C416.078,426.298,425.687,416.536,434.037,405.749z M401.454,275.468
	c-1.403-5.549-4.07-12.451-12.241-13.898c8.224-1.533,11.361-8.382,12.241-13.899c1.002,4.994,3.773,12.366,13.025,13.899
	C405.854,262.755,403.188,269.918,401.454,275.468z M442.516,284.039c1.428,7.118,5.378,17.626,18.565,19.811
	c-12.293,1.691-16.094,11.901-18.565,19.811c-2-7.91-5.8-17.747-17.448-19.811C436.79,301.665,441.262,291.902,442.516,284.039z
	 M402.892,418.9c-1.496-5.919-4.34-13.28-13.056-14.824c8.771-1.635,12.117-8.94,13.056-14.824
	c1.069,5.326,4.024,13.189,13.892,14.824C407.585,405.342,404.741,412.981,402.892,418.9z M239.13,368.442
	c0.753,4.439,1.229,8.194,1.48,10.395c-1.286,0.028-2.259,0.029-2.259,0.029l-7.447,8.275l-6.322,7.388
	c-13.298-11.94-34.869-34.671-39.798-42.244c5.094-7.772,10.804-14.231,16.286-19.466c2.257,2.85,4.996,5.975,8.319,9.431
	c31.031,32.272,13.457,42.822,13.457,42.822C222.364,386.005,234.915,379.173,239.13,368.442z M330.671,129.603
	c31.703,6.064,60.376,20.744,83.486,41.513c0.661,0.132,1.224,0.244,1.661,0.33c10.948,2.155,17.502,11.148,18.164,20.678
	c6.265,7.843,11.878,16.228,16.733,25.088c6.102-17.93,21.248-31.705,39.983-35.861c-13.82-22.26-31.365-41.97-51.787-58.23
	c-8.107,14.955-23.946,25.134-42.12,25.134c-26.398,0-47.874-21.476-47.874-47.874c0-7.036,1.538-13.715,4.276-19.738
	c-17.707-4.454-36.224-6.846-55.294-6.846c-14.08,0-27.855,1.315-41.23,3.786c-2.311,21.12-20.251,37.611-41.976,37.611
	c-11.226,0-21.435-4.411-29.008-11.581c-8.083,4.625-15.852,9.737-23.276,15.286c12.385,2.825,43.269,9.333,79.445,16.853
	c6.302-2.149,12.768-3.939,19.37-5.36c10.185-13.791,28.653-20.528,46.761-15.519C317.297,117.448,325.068,122.753,330.671,129.603z
	 M450.912,151.705c1.106,5.514,4.166,13.655,14.382,15.347c-9.523,1.31-12.467,9.219-14.382,15.347
	c-1.549-6.128-4.493-13.748-13.517-15.347C446.476,165.36,449.94,157.797,450.912,151.705z M320.214,106.43
	c-1.226-4.851-3.557-10.885-10.701-12.15c7.189-1.34,9.932-7.327,10.701-12.15c0.876,4.366,3.299,10.81,11.386,12.15
	C324.06,95.317,321.729,101.579,320.214,106.43z M432.372,384.271c0,28.693,23.345,52.038,52.038,52.038
	s52.038-23.345,52.038-52.038c0-28.693-23.345-52.038-52.038-52.038S432.372,355.578,432.372,384.271z M529.505,384.271
	c0,24.905-20.19,45.095-45.095,45.095s-45.095-20.19-45.095-45.095c0-24.905,20.19-45.095,45.095-45.095
	S529.505,359.366,529.505,384.271z M0.042,300.943C0.03,299.841,0,298.743,0,297.638c0-1.82,0.036-3.632,0.069-5.445
	c1.669,0.75,2.837,2.419,2.837,4.368C2.906,298.52,1.726,300.199,0.042,300.943z M125.754,274.492
	c-1.289,8.524-1.981,17.241-1.981,26.12c0,13.819,1.643,27.257,4.7,40.155c-9.215-7.043-20.717-11.24-33.185-11.24
	c-7.716,0-15.061,1.613-21.726,4.505c-0.59-3.972-1.08-7.975-1.461-12.01h12.164c5.707,0,10.334-4.627,10.334-10.334
	c0-5.707-4.627-10.334-10.334-10.334H71.094c-0.001-0.248-0.007-0.495-0.007-0.743c0-7.888,0.441-15.673,1.234-23.355
	c7.318,3.633,15.553,5.686,24.262,5.686C107.3,282.942,117.301,279.835,125.754,274.492z M435.884,77.549
	c-0.017-0.051-0.04-0.101-0.056-0.152c-7.893-13.354-22.432-22.334-39.036-22.334c-24.989,0-45.319,20.33-45.319,45.319
	s20.33,45.319,45.319,45.319c24.989,0,45.32-20.33,45.32-45.319c0-8.31-2.259-16.098-6.179-22.801
	C435.917,77.57,435.9,77.559,435.884,77.549z M396.793,138.075c-20.818,0-37.694-16.876-37.694-37.694
	c0-20.818,16.876-37.694,37.694-37.694c20.818,0,37.694,16.876,37.694,37.694C434.487,121.199,417.61,138.075,396.793,138.075z
	 M554.603,234.807c0-28.694-23.345-52.038-52.038-52.038s-52.038,23.344-52.038,52.038c0,28.694,23.345,52.038,52.038,52.038
	S554.603,263.501,554.603,234.807z M502.565,279.902c-24.905,0-45.095-20.19-45.095-45.095c0-24.905,20.19-45.095,45.095-45.095
	c24.906,0,45.095,20.19,45.095,45.095C547.66,259.712,527.47,279.902,502.565,279.902z M45.632,281.433
	c0,5.598-4.455,10.146-10.012,10.317c-0.025,0.768-0.063,1.532-0.081,2.301c-0.015,0.639-0.539,1.148-1.175,1.148
	c-0.01,0-0.019,0-0.029,0c-0.649-0.016-1.163-0.555-1.148-1.204c0.016-0.675,0.05-1.346,0.072-2.02
	c-1.998,0.578-3.469,2.4-3.469,4.585c0,2.135,1.405,3.922,3.333,4.543c-0.001-0.252-0.009-0.503-0.009-0.755
	c0-0.649,0.526-1.194,1.176-1.194c0.65,0,1.176,0.509,1.176,1.158h-1.176l1.176,0.005c0,0.35,0.011,0.689,0.012,1.037h33.582
	c-0.001-0.248-0.007-0.495-0.007-0.743c0-8.23,0.472-16.35,1.326-24.358c-14.106-7.719-24.452-21.467-27.573-37.753
	c-0.472,1.953-0.925,3.914-1.354,5.884c-0.12,0.55-0.607,0.926-1.148,0.926c-0.083,0-0.167-0.008-0.252-0.027
	c-0.634-0.139-1.037-0.765-0.899-1.4c0.449-2.061,0.921-4.114,1.417-6.156c0.153-0.63,0.786-1.015,1.421-0.865
	c0.244,0.059,0.436,0.205,0.59,0.381c-0.494-2.951-0.764-5.977-0.764-9.066c0-30.198,24.568-54.766,54.766-54.766
	c3.601,0,7.119,0.359,10.528,1.026c3.787-5.708,7.824-11.234,12.094-16.568c-2.281-3.86-5.799-7.102-11.561-8.122
	c10.062-1.875,13.9-10.255,14.976-17.004c0.812,4.048,2.592,9.364,6.982,13.042c8.103-8.798,16.878-16.965,26.255-24.41
	c0.495-2.453,0.923-3.866,0.923-3.866l0.001,0c0,0,0,0-0.001,0c0.001,0,0.003,0.001,0.005,0.001l0.476,0.145
	c0.538,0.152,1.397,0.367,2.569,0.645c7.754-5.886,15.885-11.297,24.363-16.176c-7.258-7.588-11.731-17.861-11.731-29.165
	c0-1.056,0.052-2.1,0.129-3.138c-0.137,0.053-0.276,0.106-0.418,0.106c-0.417,0-0.821-0.222-1.034-0.615
	c-0.31-0.571-0.099-1.285,0.472-1.595c0.422-0.229,0.85-0.447,1.274-0.672c2.885-20.497,20.531-36.321,41.812-36.321
	c10.806,0,20.672,4.084,28.15,10.783c1.988-0.419,3.984-0.818,5.987-1.192c0.639-0.116,1.253,0.302,1.372,0.941
	c0.119,0.639-0.302,1.253-0.94,1.372c-1.456,0.272-2.903,0.57-4.351,0.866c7.427,7.615,12.016,18.011,12.016,29.464
	c0,0.849-0.033,1.69-0.082,2.527c13.324-2.429,27.038-3.724,41.054-3.724c19.386,0,38.202,2.457,56.19,7.017
	c7.909-15.571,24.074-26.272,42.702-26.272c17.557,0,32.927,9.505,41.26,23.634c1.389,0.872,2.777,1.746,4.149,2.643
	c0.543,0.355,0.695,1.084,0.34,1.628c-0.226,0.345-0.602,0.533-0.986,0.533c-0.221,0-0.443-0.062-0.643-0.192
	c-0.219-0.143-0.443-0.28-0.663-0.422c2.828,6.104,4.417,12.894,4.417,20.051c0,7.486-1.731,14.575-4.808,20.892
	c20.94,16.611,38.894,36.811,52.97,59.652c3.162-0.57,6.412-0.884,9.736-0.884c12.715,0,24.421,4.367,33.727,11.665
	c-0.582-1.276-1.16-2.555-1.762-3.82c-0.279-0.587-0.03-1.289,0.557-1.568c0.588-0.279,1.287-0.029,1.567,0.556
	c0.908,1.905,1.791,3.823,2.652,5.753c0.214,0.478,0.071,1.012-0.299,1.344c11.235,10.037,18.324,24.621,18.324,40.836
	c0,3.829-0.398,7.566-1.15,11.175c0.271,0.163,0.479,0.428,0.548,0.763c0.422,2.059,0.821,4.126,1.199,6.202
	c0.115,0.639-0.31,1.251-0.948,1.367c-0.07,0.013-0.142,0.019-0.211,0.019c-0.557,0-1.053-0.398-1.156-0.966
	c-0.177-0.98-0.378-1.952-0.566-2.929c-4.448,14.909-15.08,27.175-28.916,33.798c0.391,5.411,0.619,10.867,0.619,16.376
	c0,1.104-0.027,2.201-0.043,3.302h23.213c2.035,0,3.686-1.652,3.686-3.691c0-2.038-1.65-3.691-3.686-3.691h-2.498
	c-5.078,0-9.195-4.122-9.195-9.208c0-5.085,4.117-9.208,9.195-9.208h11.459c-0.173-2.061-0.37-4.115-0.59-6.161
	c-0.07-0.646,0.398-1.226,1.044-1.295c0.632-0.079,1.224,0.398,1.294,1.043c0.225,2.089,0.425,4.185,0.602,6.288
	c0.004,0.044-0.013,0.082-0.014,0.125h33.406c-1.567-24.185-6.007-47.585-13.01-69.855h-19.355c-6.716,0-12.16-5.444-12.16-12.16
	c0-6.716,5.444-12.16,12.16-12.16h10.509c-2.037-4.924-4.193-9.785-6.482-14.571H527.5c0.127,0.222,0.26,0.441,0.387,0.663
	c0.321,0.565,0.122,1.283-0.442,1.603c-0.184,0.104-0.383,0.153-0.58,0.153c-0.409,0-0.808-0.214-1.024-0.596
	c-0.348-0.612-0.711-1.215-1.064-1.824h-1.114c-5.775,0-10.456-4.681-10.456-10.456c0-5.774,4.681-10.456,10.456-10.456h0.723
	c2.679,0,4.851-2.172,4.851-4.851c0-2.679-2.172-4.85-4.851-4.85h-17.381c0.194,0.476,0.077,1.036-0.35,1.367
	c-0.214,0.167-0.467,0.247-0.719,0.247c-0.352,0-0.699-0.157-0.931-0.456c-0.302-0.389-0.615-0.77-0.919-1.158H474.12
	c-5.775,0-10.456-4.681-10.456-10.456c0-5.774,4.681-10.456,10.456-10.456h11.715c-0.48-0.496-0.951-1-1.435-1.492
	c-0.456-0.463-0.45-1.207,0.013-1.663c0.463-0.456,1.207-0.45,1.665,0.013c1.02,1.036,2.019,2.09,3.022,3.143h45.735
	c-12.891-16.981-27.56-32.534-43.736-46.383h-44.268c-4.839,0-8.761-3.928-8.761-8.774c0-4.846,3.923-8.774,8.761-8.774h3.048
	c2.245,0,4.065-1.822,4.065-4.07c0-2.248-1.82-4.07-4.065-4.07h-80.192c1.38,0.39,2.763,0.776,4.133,1.188
	c0.623,0.186,0.975,0.843,0.789,1.465c-0.153,0.509-0.62,0.838-1.127,0.838c-0.111,0-0.225-0.016-0.338-0.05
	c-1.996-0.599-4.001-1.175-6.019-1.728c-0.626-0.172-0.995-0.819-0.823-1.446c0.027-0.1,0.085-0.181,0.134-0.267h-4.519
	c-0.172,0.097-0.362,0.163-0.566,0.163c-0.094,0-0.19-0.011-0.284-0.034c-0.182-0.045-0.365-0.084-0.547-0.129h-16.263
	c-3.384,0-6.314-1.924-7.774-4.737c-2.051-0.305-4.112-0.586-6.179-0.843c-0.645-0.08-1.103-0.668-1.023-1.313
	c0.08-0.644,0.664-1.111,1.313-1.021c1.688,0.21,3.368,0.447,5.046,0.688c-0.09-0.503-0.144-1.019-0.144-1.548
	c0-4.846,3.923-8.774,8.762-8.774h65.877c1.94,0,3.512-1.575,3.512-3.517c0-0.485-0.098-0.948-0.276-1.368
	c-1.742-0.736-3.499-1.445-5.259-2.149h-0.357c-2.382,0-4.539-0.955-6.118-2.5C369.26,6.616,334.223,0,297.638,0
	c-8.581,0-17.071,0.384-25.467,1.096c-1.555,1.649-3.754,2.685-6.199,2.685h-0.59c-2.185,0-3.956,1.771-3.956,3.956
	s1.771,3.956,3.956,3.956h40.993c4.709,0,8.527,3.817,8.527,8.526s-3.818,8.527-8.527,8.527h-75.638
	c-4.709,0-8.527-3.817-8.527-8.527s3.818-8.526,8.527-8.526h4.551c2.185,0,3.956-1.771,3.956-3.956c0-0.691-0.193-1.332-0.505-1.897
	C183.35,16.958,133.529,43.455,93.901,80.683h21.697c5.078,0,9.195,4.123,9.195,9.208c0,5.085-4.117,9.208-9.195,9.208h-2.497
	c-2.036,0-3.686,1.653-3.686,3.691s1.65,3.691,3.686,3.691h28.222c5.078,0,9.195,4.122,9.195,9.208c0,5.085-4.117,9.208-9.195,9.208
	H71.391c-2.356,0-4.266,1.913-4.266,4.272c0,2.359,1.91,4.272,4.266,4.272h3.199c5.078,0,9.195,4.122,9.195,9.208
	c0,1.217-0.241,2.376-0.67,3.439c0.31-0.064,0.643-0.011,0.921,0.189c0.528,0.378,0.65,1.113,0.271,1.64
	c-1.213,1.695-2.406,3.404-3.579,5.127c-0.227,0.334-0.597,0.514-0.974,0.514c-0.227,0-0.458-0.066-0.661-0.204
	c-0.536-0.365-0.676-1.097-0.31-1.634c0.349-0.513,0.712-1.015,1.065-1.525c-1.491,1.044-3.302,1.661-5.26,1.661H38.109
	C17.95,187.667,4.994,228.065,1.191,271.099h34.107C41.005,271.099,45.632,275.726,45.632,281.433z M572.944,237.996
	c0.916,4.565,3.449,11.303,11.906,12.704c-7.883,1.084-10.32,7.632-11.906,12.704c-1.282-5.073-3.72-11.381-11.189-12.704
	C569.272,249.299,572.139,243.039,572.944,237.996z M558.975,259.175c0.325,2.077,0.626,4.161,0.902,6.254
	c0.085,0.644-0.369,1.234-1.013,1.32c-0.052,0.006-0.104,0.01-0.155,0.01c-0.581,0-1.086-0.43-1.165-1.023
	c-0.273-2.073-0.571-4.139-0.893-6.197c-0.1-0.642,0.339-1.244,0.98-1.344C558.259,258.091,558.874,258.533,558.975,259.175z
	 M529.353,175.092c0.573-0.306,1.286-0.09,1.591,0.482c0.995,1.859,1.969,3.73,2.922,5.615c0.293,0.58,0.061,1.287-0.519,1.58
	c-0.17,0.086-0.352,0.127-0.529,0.127c-0.43,0-0.844-0.236-1.051-0.646c-0.944-1.868-1.911-3.724-2.897-5.566
	C528.564,176.111,528.779,175.399,529.353,175.092z M509.032,143.267c0.52-0.388,1.259-0.275,1.645,0.249
	c1.251,1.697,2.482,3.408,3.692,5.134c0.374,0.532,0.245,1.265-0.287,1.638c-0.205,0.144-0.44,0.213-0.674,0.213
	c-0.372,0-0.736-0.174-0.964-0.501c-1.201-1.712-2.421-3.407-3.661-5.089C508.398,144.389,508.509,143.652,509.032,143.267z
	 M489.243,81.949c0.916,4.565,3.449,11.303,11.906,12.704c-7.883,1.084-10.321,7.632-11.906,12.704
	c-1.282-5.073-3.72-11.381-11.189-12.704C485.571,93.252,488.438,86.992,489.243,81.949z M475.337,105.984
	c0.437-0.478,1.184-0.506,1.661-0.067c1.548,1.428,3.078,2.875,4.591,4.339c0.466,0.452,0.478,1.197,0.027,1.663
	c-0.231,0.239-0.539,0.358-0.845,0.358c-0.296,0-0.59-0.11-0.817-0.331c-1.5-1.451-3.016-2.884-4.55-4.299
	C474.927,107.205,474.897,106.461,475.337,105.984z M465.863,97.721c0.418-0.499,1.161-0.563,1.656-0.145
	c1.612,1.354,3.209,2.725,4.789,4.115c0.488,0.429,0.536,1.172,0.107,1.659c-0.233,0.265-0.557,0.4-0.883,0.4
	c-0.276,0-0.553-0.096-0.777-0.293c-1.566-1.377-3.149-2.737-4.747-4.078C465.51,98.961,465.445,98.219,465.863,97.721z
	 M456.01,89.921c0.392-0.517,1.131-0.618,1.647-0.223c1.676,1.275,3.334,2.568,4.978,3.881c0.508,0.405,0.589,1.145,0.184,1.653
	c-0.232,0.291-0.574,0.442-0.92,0.442c-0.258,0-0.517-0.084-0.733-0.257c-1.629-1.301-3.274-2.583-4.933-3.847
	C455.715,91.176,455.615,90.438,456.01,89.921z M445.801,82.601c0.369-0.534,1.099-0.672,1.637-0.302
	c1.732,1.192,3.451,2.406,5.153,3.639c0.526,0.381,0.644,1.116,0.263,1.643c-0.229,0.317-0.589,0.486-0.954,0.486
	c-0.239,0-0.48-0.072-0.688-0.224c-1.688-1.222-3.391-2.424-5.108-3.606C445.569,83.868,445.434,83.136,445.801,82.601z
	 M378.363,49.603c0.201-0.618,0.865-0.957,1.483-0.753c2.006,0.655,4,1.333,5.983,2.034c0.612,0.216,0.933,0.888,0.716,1.5
	c-0.171,0.483-0.625,0.784-1.109,0.784c-0.131,0-0.263-0.021-0.392-0.067c-1.964-0.694-3.941-1.367-5.927-2.015
	C378.5,50.885,378.162,50.221,378.363,49.603z M318.025,36.599c2.105,0.161,4.202,0.346,6.292,0.555
	c0.647,0.065,1.118,0.642,1.054,1.288c-0.061,0.606-0.573,1.059-1.169,1.059c-0.039,0-0.079-0.002-0.118-0.006
	c-2.072-0.207-4.15-0.391-6.238-0.551c-0.647-0.049-1.133-0.615-1.083-1.263C316.812,37.034,317.376,36.558,318.025,36.599z
	 M305.407,35.937c2.112,0.061,4.215,0.146,6.314,0.256c0.648,0.034,1.146,0.588,1.113,1.237c-0.034,0.628-0.553,1.114-1.173,1.114
	c-0.021,0-0.042-0.001-0.063-0.002c-2.079-0.11-4.166-0.194-6.258-0.255c-0.65-0.018-1.161-0.56-1.142-1.209
	C304.215,36.43,304.741,35.891,305.407,35.937z M292.778,35.868c1.617-0.029,3.236-0.043,4.859-0.043l1.458,0.004
	c0.649,0.003,1.173,0.533,1.169,1.183c-0.004,0.647-0.53,1.169-1.176,1.169c-0.002,0-0.004,0-0.007,0l-1.444-0.004
	c-1.609,0-3.214,0.015-4.817,0.044c-0.007,0-0.014,0-0.021,0c-0.64,0-1.164-0.513-1.176-1.155
	C291.611,36.416,292.128,35.88,292.778,35.868z M297.9,55.779c-7.951,1.093-10.41,7.697-12.008,12.814
	c-1.293-5.116-3.752-11.479-11.286-12.814c7.582-1.413,10.474-7.728,11.286-12.814C286.816,47.569,289.37,54.366,297.9,55.779z
	 M280.156,36.394c2.096-0.137,4.199-0.25,6.309-0.337c0.629-0.03,1.197,0.478,1.223,1.126c0.027,0.648-0.477,1.197-1.126,1.224
	c-2.09,0.086-4.174,0.198-6.252,0.333c-0.026,0.002-0.052,0.003-0.078,0.003c-0.614,0-1.132-0.478-1.172-1.1
	C279.016,36.996,279.507,36.436,280.156,36.394z M267.572,37.515c2.089-0.236,4.184-0.448,6.286-0.635
	c0.643-0.066,1.218,0.419,1.275,1.067c0.058,0.646-0.42,1.218-1.067,1.275c-2.083,0.186-4.159,0.396-6.23,0.63
	c-0.045,0.006-0.089,0.008-0.134,0.008c-0.59,0-1.099-0.443-1.167-1.044C266.463,38.17,266.927,37.587,267.572,37.515z
	 M255.055,39.235c2.075-0.337,4.158-0.649,6.249-0.935c0.643-0.087,1.237,0.361,1.324,1.005c0.089,0.644-0.361,1.237-1.005,1.325
	c-2.072,0.285-4.136,0.594-6.192,0.927c-0.064,0.01-0.127,0.015-0.19,0.015c-0.567,0-1.066-0.411-1.159-0.988
	C253.979,39.943,254.414,39.338,255.055,39.235z M160.634,74.021c1.803-1.093,3.62-2.165,5.45-3.217
	c0.566-0.325,1.282-0.128,1.606,0.434c0.324,0.563,0.13,1.282-0.434,1.606c-1.814,1.042-3.614,2.105-5.402,3.189
	c-0.191,0.115-0.401,0.17-0.608,0.17c-0.398,0-0.786-0.202-1.007-0.566C159.902,75.082,160.079,74.358,160.634,74.021z
	 M126.414,101.807c-1.58,1.364-3.144,2.747-4.691,4.148c-0.226,0.204-0.508,0.305-0.79,0.305c-0.32,0-0.639-0.13-0.872-0.387
	c-0.436-0.481-0.4-1.225,0.082-1.661c1.561-1.414,3.139-2.81,4.735-4.186c0.492-0.423,1.235-0.369,1.659,0.123
	C126.961,100.64,126.906,101.382,126.414,101.807z M136.09,93.848c-1.644,1.289-3.273,2.596-4.885,3.922
	c-0.219,0.18-0.483,0.268-0.746,0.268c-0.34,0-0.677-0.146-0.909-0.429c-0.413-0.501-0.34-1.242,0.161-1.655
	c1.626-1.339,3.27-2.658,4.929-3.958c0.512-0.4,1.25-0.31,1.651,0.201C136.691,92.708,136.601,93.447,136.09,93.848z
	 M145.144,87.078c-1.366,0.978-2.729,1.96-4.075,2.964c-0.211,0.158-0.458,0.233-0.703,0.233c-0.359,0-0.712-0.163-0.943-0.473
	c-0.388-0.521-0.281-1.258,0.239-1.646c1.189-0.887,2.396-1.752,3.6-2.619c-1.756-1.222-3.869-2.147-6.454-2.605
	c9.813-1.829,13.556-10.001,14.606-16.584c0.671,3.342,2.007,7.575,4.997,10.972c0.187,0.092,0.359,0.215,0.479,0.403
	c0.033,0.051,0.039,0.108,0.063,0.161c2.31,2.394,5.508,4.302,10.003,5.047c-10.29,1.415-13.472,9.962-15.541,16.584
	C150.355,95.329,148.688,90.502,145.144,87.078z M93.954,131.557c1.345-1.62,2.708-3.224,4.089-4.811
	c0.426-0.49,1.168-0.542,1.659-0.115c0.49,0.426,0.541,1.169,0.115,1.659c-1.369,1.573-2.72,3.163-4.053,4.769
	c-0.233,0.28-0.568,0.425-0.906,0.425c-0.265,0-0.531-0.089-0.751-0.271C93.609,132.799,93.54,132.058,93.954,131.557z
	 M86.129,141.461c1.266-1.683,2.55-3.348,3.854-4.999c0.401-0.509,1.142-0.597,1.652-0.193c0.509,0.403,0.596,1.143,0.194,1.652
	c-1.293,1.635-2.566,3.286-3.821,4.954c-0.231,0.307-0.584,0.469-0.94,0.469c-0.246,0-0.495-0.077-0.706-0.236
	C85.843,142.718,85.739,141.98,86.129,141.461z M71.94,162.313c1.099-1.793,2.22-3.572,3.36-5.337
	c0.352-0.546,1.08-0.703,1.626-0.349c0.545,0.352,0.701,1.081,0.349,1.626c-1.131,1.748-2.24,3.511-3.329,5.289
	c-0.222,0.362-0.609,0.561-1.005,0.561c-0.209,0-0.421-0.056-0.613-0.173C71.775,163.591,71.601,162.867,71.94,162.313z
	 M65.611,173.216c1.012-1.843,2.045-3.673,3.099-5.488c0.325-0.562,1.045-0.754,1.607-0.427c0.562,0.326,0.754,1.046,0.427,1.607
	c-1.045,1.8-2.069,3.614-3.073,5.44c-0.214,0.39-0.616,0.61-1.032,0.61c-0.191,0-0.385-0.046-0.565-0.145
	C65.506,174.501,65.298,173.785,65.611,173.216z M59.812,184.404c0.923-1.889,1.867-3.765,2.833-5.628
	c0.299-0.577,1.01-0.802,1.585-0.503c0.577,0.299,0.802,1.009,0.503,1.585c-0.957,1.847-1.893,3.706-2.807,5.578
	c-0.204,0.417-0.622,0.66-1.057,0.66c-0.174,0-0.35-0.038-0.516-0.12C59.768,185.692,59.526,184.988,59.812,184.404z
	 M37.884,250.073c0.122-0.639,0.736-1.054,1.377-0.933c0.638,0.123,1.055,0.739,0.933,1.377c-0.394,2.046-0.763,4.1-1.109,6.163
	c-0.096,0.575-0.594,0.981-1.159,0.981c-0.065,0-0.13-0.005-0.196-0.016c-0.64-0.108-1.073-0.714-0.965-1.355
	C37.114,254.209,37.488,252.137,37.884,250.073z M24.784,256.54c-1.226-4.851-3.557-10.885-10.701-12.15
	c7.19-1.34,9.932-7.327,10.701-12.15c0.876,4.366,3.299,10.81,11.387,12.15C28.631,245.427,26.3,251.689,24.784,256.54z
	 M34.976,268.797c0.249-2.096,0.523-4.183,0.82-6.264c0.091-0.643,0.682-1.094,1.331-0.997c0.643,0.092,1.09,0.688,0.997,1.331
	c-0.295,2.062-0.566,4.131-0.813,6.209c-0.071,0.597-0.579,1.037-1.166,1.037c-0.046,0-0.093-0.003-0.141-0.009
	C35.359,270.027,34.899,269.441,34.976,268.797z M561.258,322.329c-0.167,2.046-0.357,4.086-0.572,6.117
	c-0.063,0.604-0.574,1.053-1.168,1.053c-0.041,0-0.083-0.002-0.125-0.006c-0.646-0.068-1.114-0.647-1.045-1.293
	c0.206-1.95,0.386-3.908,0.549-5.871h-33.192c-0.725,7.638-1.828,15.166-3.286,22.569c10.32,9.966,16.757,23.928,16.757,39.374
	c0,30.198-24.567,54.766-54.766,54.766c-1.448,0-2.877-0.074-4.297-0.185c-9.747,12.819-20.813,24.579-32.994,35.084
	c7.775,8.245,15.105,16.559,21.951,24.746c0.793-0.686,1.593-1.362,2.379-2.058c0.487-0.43,1.228-0.385,1.66,0.102
	c0.43,0.485,0.385,1.228-0.101,1.66c-0.804,0.712-1.624,1.405-2.436,2.107c6.932,8.358,13.355,16.563,19.233,24.413
	c15.973-13.519,30.501-28.687,43.321-45.249l-42.039-0.502c0.418,0.448,0.435,1.142,0.011,1.596
	c-1.436,1.541-2.891,3.063-4.363,4.568c-0.231,0.235-0.536,0.353-0.841,0.353c-0.297,0-0.594-0.111-0.823-0.335
	c-0.464-0.454-0.471-1.2-0.018-1.664c1.46-1.491,2.901-2.999,4.326-4.526c0.005-0.005,0.012-0.007,0.017-0.012l-8.426-0.101
	c-5.566-0.066-10.025-4.633-9.958-10.199c0.067-5.566,4.633-10.025,10.199-9.958l48.455,0.579c2.582,0.031,4.7-2.038,4.731-4.62
	c0.031-2.582-2.038-4.701-4.62-4.731l-0.697-0.008c-4.17-0.05-7.717-2.625-9.207-6.254c-0.482,0.744-0.952,1.497-1.442,2.236
	c-0.227,0.342-0.601,0.528-0.982,0.528c-0.222,0-0.447-0.063-0.647-0.196c-0.542-0.359-0.691-1.087-0.332-1.629
	c0.909-1.375,1.796-2.765,2.68-4.158c-0.014-0.24-0.031-0.48-0.028-0.725c0.048-4.045,2.478-7.495,5.935-9.058
	c0.396-0.689,0.804-1.37,1.195-2.063c0.318-0.567,1.038-0.764,1.601-0.447c0.567,0.318,0.767,1.035,0.447,1.601
	c-0.01,0.017-0.02,0.034-0.03,0.052c0.346-0.032,0.696-0.047,1.051-0.042l34.776,0.415c12.576-25.199,21.69-52.425,26.701-81.067
	h-2.369c-5.078,0-9.195-4.122-9.195-9.208c0-5.085,4.117-9.208,9.195-9.208h3.199c0.662,0,1.281-0.164,1.839-0.433
	c0.264-2.408,0.498-4.825,0.704-7.25c-0.712-0.533-1.586-0.86-2.543-0.86H561.258z M476.084,492.415
	c1.529-1.422,3.042-2.862,4.536-4.319c0.465-0.453,1.21-0.446,1.664,0.022c0.453,0.464,0.443,1.208-0.022,1.663
	c-1.507,1.469-3.033,2.922-4.577,4.356c-0.227,0.211-0.514,0.315-0.801,0.315c-0.315,0-0.63-0.127-0.861-0.376
	C475.581,493.601,475.609,492.857,476.084,492.415z M514.886,451.302c-1.204,1.728-2.427,3.441-3.668,5.138
	c-0.231,0.314-0.588,0.481-0.951,0.481c-0.241,0-0.484-0.073-0.694-0.227c-0.523-0.384-0.637-1.12-0.254-1.645
	c1.232-1.681,2.444-3.379,3.637-5.093c0.372-0.533,1.103-0.663,1.638-0.293C515.127,450.036,515.258,450.769,514.886,451.302z
	 M557.616,334.417c0.085-0.644,0.666-1.093,1.318-1.014c0.644,0.084,1.099,0.674,1.014,1.318c-0.273,2.093-0.568,4.178-0.889,6.255
	c-0.09,0.581-0.591,0.997-1.16,0.997c-0.059,0-0.12-0.004-0.182-0.014c-0.641-0.099-1.082-0.7-0.982-1.341
	C557.053,338.558,557.346,336.491,557.616,334.417z M554.532,352.944c0.416-2.041,0.807-4.092,1.176-6.15
	c0.114-0.639,0.73-1.065,1.364-0.951c0.64,0.115,1.065,0.726,0.951,1.365c-0.372,2.078-0.768,4.147-1.188,6.207
	c-0.114,0.557-0.603,0.941-1.151,0.941c-0.077,0-0.157-0.008-0.236-0.024C554.814,354.202,554.403,353.58,554.532,352.944z
	 M551.74,365.151c0.513-2.02,1.004-4.049,1.47-6.087c0.147-0.634,0.786-1.03,1.408-0.884c0.635,0.145,1.03,0.776,0.885,1.409
	c-0.471,2.056-0.965,4.105-1.484,6.142c-0.135,0.532-0.614,0.886-1.138,0.886c-0.097,0-0.194-0.011-0.291-0.037
	C551.959,366.42,551.579,365.78,551.74,365.151z M548.37,377.189c0.608-1.987,1.193-3.984,1.756-5.991
	c0.176-0.623,0.815-0.989,1.451-0.815c0.625,0.176,0.99,0.824,0.814,1.451c-0.568,2.023-1.159,4.038-1.773,6.044
	c-0.155,0.506-0.62,0.831-1.124,0.831c-0.114,0-0.23-0.017-0.345-0.052C548.529,378.467,548.18,377.811,548.37,377.189z
	 M534.225,418.792c-0.944,1.881-1.909,3.749-2.895,5.604c-0.211,0.398-0.619,0.625-1.04,0.625c-0.186,0-0.374-0.044-0.55-0.138
	c-0.574-0.305-0.792-1.017-0.487-1.59c0.978-1.84,1.935-3.692,2.87-5.556c0.291-0.58,0.996-0.819,1.579-0.523
	C534.283,417.504,534.517,418.211,534.225,418.792z M539.608,407.386c-0.851,1.923-1.726,3.835-2.622,5.735
	c-0.201,0.425-0.623,0.674-1.065,0.674c-0.168,0-0.338-0.037-0.501-0.113c-0.587-0.277-0.839-0.978-0.561-1.566
	c0.888-1.883,1.754-3.777,2.6-5.684c0.262-0.595,0.961-0.862,1.552-0.598C539.604,406.097,539.871,406.791,539.608,407.386z
	 M544.439,395.738c-0.76,1.964-1.541,3.914-2.345,5.853c-0.187,0.453-0.625,0.726-1.086,0.726c-0.151,0-0.304-0.028-0.45-0.09
	c-0.601-0.249-0.885-0.937-0.636-1.536c0.796-1.922,1.572-3.855,2.323-5.799c0.233-0.608,0.912-0.909,1.521-0.674
	C544.372,394.453,544.673,395.133,544.439,395.738z M558.625,405.994c-1.517-5.999-4.302-13.324-12.182-15.815
	c-0.223,0.273-0.557,0.436-0.909,0.436c-0.132,0-0.266-0.022-0.398-0.069c-0.404-0.145-0.66-0.494-0.737-0.887
	c-0.069-0.013-0.131-0.033-0.2-0.046c0.062-0.012,0.117-0.03,0.178-0.042c-0.02-0.175-0.013-0.354,0.05-0.531
	c0.703-1.957,1.384-3.924,2.043-5.902c0.205-0.615,0.867-0.947,1.487-0.744c0.616,0.205,0.95,0.871,0.744,1.487
	c-0.554,1.665-1.134,3.32-1.719,4.972c7.625-2.701,10.713-9.785,11.644-15.62c1.181,5.886,4.447,14.574,15.351,16.38
	C563.812,391.011,560.669,399.453,558.625,405.994z M471.587,313.121c0,5.086,4.117,9.208,9.195,9.208h42.887
	c-0.677,7.083-1.685,14.069-3,20.948c-9.666-8.559-22.362-13.771-36.259-13.771c-5.275,0-10.372,0.765-15.203,2.163
	c1.828-10.084,2.819-20.455,2.819-31.057c0-7.21-0.457-14.315-1.314-21.297c8.982,6.447,19.977,10.258,31.852,10.258
	c7.667,0,14.967-1.59,21.598-4.447c0.352,5.119,0.552,10.279,0.552,15.486c0,1.104-0.026,2.202-0.042,3.302h-43.891
	C475.704,303.913,471.587,308.035,471.587,313.121z M383.677,326.838c0,0-24.514-24.514-52.442-30.1
	c-12.723,28.238-15.102,43.65-9.413,77.163c0,0,1.552,3.413,1.655,6.723c0.009,0.292,0.025,0.614,0.044,0.948
	c1.731,5.693,3.915,7.214,7.607,8.537C341.576,386.414,364.877,372.292,383.677,326.838z M344.49,356.514
	c-1.199-4.743-3.478-10.642-10.462-11.879c7.029-1.31,9.71-7.164,10.462-11.879c0.857,4.268,3.225,10.569,11.132,11.879
	C348.251,345.648,345.972,351.771,344.49,356.514z M340.319,156.064c-0.011-8.661-2.839-17.012-7.797-24.025
	c29.258,6.002,55.825,19.449,77.639,38.273C398.202,167.901,371.79,162.518,340.319,156.064z M149.809,354.869
	c0.194-2.134,26.277-45.064,47.409-70.521c-6.413-17.314,6.101-33.985,12.74-41.213c-7.135-15.934,2.43-31.585,9.483-40.137
	c-21.738-4.016-36.409-11.685-46.232-20.841c-9.083,9.559-17.089,20.149-23.805,31.587c1.259,4.601,1.944,9.437,1.944,14.432
	c0,18.489-9.219,34.855-23.291,44.776c-1.463,9.009-2.248,18.242-2.248,27.658c0,14.587,1.841,28.749,5.273,42.284
	c11.607,10.05,18.972,24.875,18.972,41.397c0,1.343-0.066,2.67-0.161,3.989c9.296,15.635,20.988,29.683,34.58,41.624
	c10.177-9.721,19.612-17.417,27.62-23.33C184.5,387.553,152.632,364.415,149.809,354.869z M174.958,214.049
	c0.876,4.366,3.298,10.81,11.386,12.15c-7.539,1.037-9.87,7.299-11.386,12.15c-1.226-4.851-3.558-10.885-10.701-12.15
	C171.446,224.86,174.189,218.872,174.958,214.049z M134.357,301.399c10.272-1.914,14.191-10.469,15.29-17.36
	c1.252,6.238,4.713,15.446,16.269,17.36c-10.772,1.482-14.103,10.428-16.269,17.36C147.895,311.828,144.564,303.207,134.357,301.399
	z M132.198,474.064h-30.9c0.965,1.09,1.927,2.181,2.909,3.256c0.438,0.48,0.405,1.224-0.075,1.661
	c-0.226,0.207-0.51,0.308-0.793,0.308c-0.319,0-0.636-0.13-0.868-0.383c-1.422-1.556-2.826-3.126-4.211-4.712
	c-0.035-0.04-0.047-0.089-0.075-0.131H83.74c-2.582,0-4.676,2.094-4.676,4.676s2.093,4.676,4.676,4.676h0.697
	c5.567,0,10.079,4.513,10.079,10.079c0,5.567-4.513,10.079-10.079,10.079h-1.68c9.114,9.508,18.86,18.403,29.158,26.637
	c4.865-9.852,9.926-19.087,15.106-27.736c-0.629-0.532-1.268-1.052-1.891-1.59c-0.493-0.424-0.547-1.166-0.124-1.659
	c0.425-0.491,1.166-0.546,1.659-0.123c0.522,0.449,1.057,0.884,1.583,1.33c6.146-10.116,12.447-19.407,18.77-27.934
	c-1.832-1.61-3.634-3.252-5.413-4.918C140.155,471.369,136.495,474.064,132.198,474.064z M112.885,488.016
	c-0.229,0.232-0.532,0.347-0.834,0.347c-0.3,0-0.599-0.114-0.829-0.342c-1.495-1.483-2.971-2.986-4.43-4.505
	c-0.45-0.469-0.435-1.213,0.034-1.663c0.469-0.452,1.213-0.436,1.663,0.034c1.445,1.505,2.909,2.994,4.39,4.465
	C113.34,486.81,113.343,487.555,112.885,488.016z M122.054,496.626c-0.232,0.257-0.552,0.388-0.873,0.388
	c-0.281,0-0.563-0.1-0.788-0.304c-1.563-1.411-3.109-2.842-4.637-4.289c-0.471-0.448-0.492-1.192-0.044-1.663
	c0.446-0.47,1.191-0.491,1.662-0.045c1.515,1.436,3.047,2.853,4.596,4.253C122.452,495.401,122.49,496.145,122.054,496.626z
	 M149.551,391.597c-2.663,19.877-16.02,36.404-34.083,43.591c4.815,6.512,9.963,12.763,15.432,18.717h1.297
	c5.567,0,10.079,4.513,10.079,10.079c0,0.457-0.041,0.903-0.1,1.344c1.986,1.879,4.005,3.721,6.057,5.528
	c11.835-15.769,23.719-28.853,34.781-39.558C169.99,419.828,158.692,406.447,149.551,391.597z M152.42,452.9
	c-1.427-5.645-4.139-12.665-12.451-14.137c8.365-1.559,11.556-8.526,12.451-14.137c1.019,5.08,3.838,12.578,13.249,14.137
	C156.896,439.969,154.184,447.255,152.42,452.9z M171.736,180.749c-8.766,9.224-16.526,19.408-23.122,30.371
	c-5.895-17.936-20.814-31.803-39.367-36.215c3.462-5.178,7.127-10.21,10.992-15.076c1.079,2.29,1.816,4.693,2.379,6.921
	c2.122-6.789,5.384-15.553,15.935-17.004c-2.942-0.487-5.338-1.464-7.31-2.74c7.465-8.091,15.507-15.637,24.065-22.576
	C153.43,136.396,152.441,161.518,171.736,180.749z M214.695,33.454c-21.784,0-39.507,17.722-39.507,39.506
	c0,21.784,17.723,39.506,39.507,39.506c21.784,0,39.506-17.722,39.506-39.506C254.201,51.176,236.478,33.454,214.695,33.454z
	 M214.694,106.703c-18.636,0-33.743-15.107-33.743-33.743s15.107-33.743,33.743-33.743c18.636,0,33.743,15.108,33.743,33.743
	S233.33,106.703,214.694,106.703z M43.25,384.292c0,28.693,23.344,52.038,52.038,52.038c28.693,0,52.037-23.345,52.037-52.038
	c0-28.693-23.344-52.038-52.037-52.038C66.594,332.254,43.25,355.599,43.25,384.292z M140.383,384.292
	c0,24.905-20.19,45.095-45.095,45.095c-24.906,0-45.095-20.19-45.095-45.095c0-24.906,20.19-45.095,45.095-45.095
	C120.193,339.197,140.383,359.387,140.383,384.292z M148.62,228.177c0-28.694-23.344-52.038-52.038-52.038
	c-28.694,0-52.038,23.344-52.038,52.038c0,19.272,10.539,36.118,26.147,45.111c0.007-0.059,0.012-0.118,0.019-0.176
	c0.581,0.482,1.222,0.887,1.909,1.207c-0.001,0.009-0.002,0.018-0.003,0.026c7.178,3.741,15.326,5.87,23.965,5.87
	C125.276,280.215,148.62,256.871,148.62,228.177z M96.582,273.272c-24.905,0-45.095-20.19-45.095-45.095
	c0-24.905,20.19-45.095,45.095-45.095c24.905,0,45.095,20.19,45.095,45.095C141.677,253.082,121.487,273.272,96.582,273.272z
	 M477.736,438.616c-18.889-2.307-34.841-14.254-42.75-30.77c-8.207,10.468-17.589,19.969-27.937,28.319
	c13.833,11.45,26.763,23.777,38.667,36.299C457.504,462.306,468.24,450.963,477.736,438.616z M452.267,462.925
	c-1.226-4.851-3.557-10.885-10.701-12.15c7.189-1.34,9.932-7.327,10.701-12.15c0.876,4.366,3.299,10.81,11.386,12.15
	C456.114,451.811,453.783,458.073,452.267,462.925z M82.835,452.743c0.525-0.38,1.26-0.26,1.642,0.27
	c0.215,0.3,0.44,0.593,0.656,0.892h43.031c-5.183-5.735-10.077-11.734-14.667-17.972c-5.701,2.016-11.827,3.125-18.21,3.125
	c-8.339,0-16.244-1.881-23.325-5.229c0.696,1.18,1.392,2.36,2.108,3.526c0.34,0.554,0.167,1.279-0.386,1.618
	c-0.192,0.118-0.404,0.174-0.614,0.174c-0.395,0-0.782-0.198-1.003-0.56c-1.104-1.797-2.186-3.607-3.246-5.431
	c-0.182-0.313-0.181-0.664-0.062-0.975c-16.824-9.357-28.238-27.312-28.238-47.89c0-5.067,0.706-9.969,2-14.63
	c-0.184-0.15-0.329-0.353-0.396-0.6c-0.547-2.039-1.07-4.084-1.569-6.141c-0.153-0.632,0.234-1.268,0.866-1.419
	c0.633-0.149,1.267,0.233,1.42,0.865c0.282,1.161,0.589,2.313,0.886,3.469c4.883-13.6,14.997-24.727,27.91-30.935
	c-0.643-4.257-1.171-8.551-1.577-12.88H1c0.199,2.449,0.425,4.89,0.683,7.322h33.021c-0.138-1.265-0.285-2.527-0.405-3.798
	c-0.061-0.647,0.413-1.221,1.061-1.282c0.639-0.055,1.221,0.414,1.282,1.061c0.127,1.344,0.28,2.681,0.428,4.019h0.571
	c5.567,0,10.079,4.513,10.079,10.079c0,4.904-3.503,8.985-8.143,9.889c0.3,0.162,0.536,0.437,0.606,0.799
	c0.394,2.053,0.813,4.098,1.256,6.134c0.138,0.634-0.265,1.261-0.9,1.399c-0.084,0.018-0.168,0.027-0.251,0.027
	c-0.541,0-1.028-0.376-1.148-0.926c-0.447-2.055-0.869-4.118-1.267-6.19c-0.081-0.42,0.088-0.816,0.384-1.083
	c-0.205,0.012-0.408,0.031-0.617,0.031H4.512c6.63,37.728,20.373,73.001,39.783,104.403h38.076
	C82.295,453.473,82.455,453.015,82.835,452.743z M47.596,448.162c-1.226-4.852-3.557-10.885-10.701-12.15
	c7.189-1.34,9.932-7.327,10.701-12.15c0.876,4.366,3.299,10.81,11.387,12.15C51.443,437.048,49.112,443.31,47.596,448.162z
	 M80.576,449.512c-0.203,0.138-0.433,0.204-0.661,0.204c-0.376,0-0.745-0.18-0.973-0.513c-1.188-1.74-2.355-3.496-3.501-5.268
	c-0.352-0.544-0.197-1.273,0.348-1.626c0.545-0.355,1.273-0.195,1.627,0.349c1.135,1.754,2.292,3.493,3.469,5.219
	C81.251,448.414,81.112,449.145,80.576,449.512z M245.842,136.58c4.495-1.43,9.073-2.671,13.719-3.733
	c-1.181,1.872-2.227,3.85-3.101,5.936C252.883,138.042,249.343,137.307,245.842,136.58z M306.833,216.826
	c-1.153-0.49-3.377,0.029-3.464-1.55c-4.657-0.46-10.645-1.969-11.671-3.632c-0.052-0.036-0.452,1.683,1.361,3.58
	c1.314,1.374,0.737,4.126,5.225,5.941c3.273,1.324,6.188,1.269,7.491-1.87C306.181,218.317,308.323,217.459,306.833,216.826z
	 M298.658,219.777c-0.445,0.459-1.556,0.303-2.481-0.35c-0.926-0.652-1.316-1.553-0.871-2.012c0.445-0.459,1.556-0.302,2.481,0.35
	C298.712,218.417,299.102,219.318,298.658,219.777z"></path>
</svg>