<svg id="visual" viewBox="0 0 900 600" width="900" height="600" xmlns="http://www.w3.org/2000/svg" xmlns:xlink="http://www.w3.org/1999/xlink" version="1.1"><rect x="0" y="0" width="900" height="600" fill="transparent"></rect><path d="M0 356L21.5 362.7C43 369.3 86 382.7 128.8 394.2C171.7 405.7 214.3 415.3 257.2 418.5C300 421.7 343 418.3 385.8 421C428.7 423.7 471.3 432.3 514.2 431.5C557 430.7 600 420.3 642.8 419.7C685.7 419 728.3 428 771.2 429.5C814 431 857 425 878.5 422L900 419L900 601L878.5 601C857 601 814 601 771.2 601C728.3 601 685.7 601 642.8 601C600 601 557 601 514.2 601C471.3 601 428.7 601 385.8 601C343 601 300 601 257.2 601C214.3 601 171.7 601 128.8 601C86 601 43 601 21.5 601L0 601Z" fill="#fa7268"></path><path d="M0 425L21.5 430.8C43 436.7 86 448.3 128.8 444C171.7 439.7 214.3 419.3 257.2 411.5C300 403.7 343 408.3 385.8 417.8C428.7 427.3 471.3 441.7 514.2 450.5C557 459.3 600 462.7 642.8 466C685.7 469.3 728.3 472.7 771.2 463.3C814 454 857 432 878.5 421L900 410L900 601L878.5 601C857 601 814 601 771.2 601C728.3 601 685.7 601 642.8 601C600 601 557 601 514.2 601C471.3 601 428.7 601 385.8 601C343 601 300 601 257.2 601C214.3 601 171.7 601 128.8 601C86 601 43 601 21.5 601L0 601Z" fill="#ef5f67"></path><path d="M0 488L21.5 484.5C43 481 86 474 128.8 473.2C171.7 472.3 214.3 477.7 257.2 477.5C300 477.3 343 471.7 385.8 471.3C428.7 471 471.3 476 514.2 472.7C557 469.3 600 457.7 642.8 450.8C685.7 444 728.3 442 771.2 448.2C814 454.3 857 468.7 878.5 475.8L900 483L900 601L878.5 601C857 601 814 601 771.2 601C728.3 601 685.7 601 642.8 601C600 601 557 601 514.2 601C471.3 601 428.7 601 385.8 601C343 601 300 601 257.2 601C214.3 601 171.7 601 128.8 601C86 601 43 601 21.5 601L0 601Z" fill="#e34c67"></path><path d="M0 539L21.5 530C43 521 86 503 128.8 503.3C171.7 503.7 214.3 522.3 257.2 522.3C300 522.3 343 503.7 385.8 501C428.7 498.3 471.3 511.7 514.2 519C557 526.3 600 527.7 642.8 530.5C685.7 533.3 728.3 537.7 771.2 538.8C814 540 857 538 878.5 537L900 536L900 601L878.5 601C857 601 814 601 771.2 601C728.3 601 685.7 601 642.8 601C600 601 557 601 514.2 601C471.3 601 428.7 601 385.8 601C343 601 300 601 257.2 601C214.3 601 171.7 601 128.8 601C86 601 43 601 21.5 601L0 601Z" fill="#d53867"></path><path d="M0 565L21.5 565.2C43 565.3 86 565.7 128.8 565.7C171.7 565.7 214.3 565.3 257.2 562.8C300 560.3 343 555.7 385.8 552.3C428.7 549 471.3 547 514.2 548.8C557 550.7 600 556.3 642.8 560.7C685.7 565 728.3 568 771.2 563.5C814 559 857 547 878.5 541L900 535L900 601L878.5 601C857 601 814 601 771.2 601C728.3 601 685.7 601 642.8 601C600 601 557 601 514.2 601C471.3 601 428.7 601 385.8 601C343 601 300 601 257.2 601C214.3 601 171.7 601 128.8 601C86 601 43 601 21.5 601L0 601Z" fill="transparent"></path></svg>