<svg width="592" height="456" viewBox="0 0 592 456" fill="none" xmlns="http://www.w3.org/2000/svg">
<g clip-path="url(#clip0)">
<rect width="592" height="456" fill="white"/>
<rect width="592" height="456" fill="white"/>
<g clip-path="url(#clip1)">
<path d="M244.693 248.87L197.333 238.86L236.8 302.77L244.693 248.87Z" fill="#C5CBCF" stroke="#C5CBCF" stroke-linejoin="bevel"/>
<path d="M197.333 238.86L211.804 327.41L236.8 302.77L197.333 238.86Z" fill="#BFC6CA" stroke="#BFC6CA" stroke-linejoin="bevel"/>
<path d="M197.333 238.86L132.871 284.29L211.804 327.41L197.333 238.86Z" fill="#EBEDEE" stroke="#EBEDEE" stroke-linejoin="bevel"/>
<path d="M257.849 137.99L180.889 155.7L197.333 238.86L257.849 137.99Z" fill="#C5CBCF" stroke="#C5CBCF" stroke-linejoin="bevel"/>
<path d="M197.333 238.86L110.507 214.99L132.871 284.29L197.333 238.86Z" fill="#DEE2E4" stroke="#DEE2E4" stroke-linejoin="bevel"/>
<path d="M182.204 393.63L257.191 385.93L211.804 327.41L182.204 393.63Z" fill="#E5E7E9" stroke="#E5E7E9" stroke-linejoin="bevel"/>
<path d="M211.804 327.41L257.191 385.93L236.8 302.77L211.804 327.41Z" fill="#D1D7D9" stroke="#D1D7D9" stroke-linejoin="bevel"/>
<path d="M349.938 289.68L346.649 252.72L244.693 248.87L349.938 289.68Z" fill="#E5E7E9" stroke="#E5E7E9" stroke-linejoin="bevel"/>
<path d="M143.396 378.23L182.204 393.63L211.804 327.41L143.396 378.23Z" fill="#BFC6CA" stroke="#BFC6CA" stroke-linejoin="bevel"/>
<path d="M180.889 155.7L110.507 214.99L197.333 238.86L180.889 155.7Z" fill="#EBEDEE" stroke="#EBEDEE" stroke-linejoin="bevel"/>
<path d="M132.871 284.29L143.396 378.23L211.804 327.41L132.871 284.29Z" fill="#CBD1D4" stroke="#CBD1D4" stroke-linejoin="bevel"/>
<path d="M71.04 302.77L143.396 378.23L132.871 284.29L71.04 302.77Z" fill="#D1D7D9" stroke="#D1D7D9" stroke-linejoin="bevel"/>
<path d="M346.649 252.72L257.849 137.99L244.693 248.87L346.649 252.72Z" fill="#E5E7E9" stroke="#E5E7E9" stroke-linejoin="bevel"/>
<path d="M244.693 248.87L257.849 137.99L197.333 238.86L244.693 248.87Z" fill="#B9C0C5" stroke="#B9C0C5" stroke-linejoin="bevel"/>
<path d="M349.938 289.68L244.693 248.87L236.8 302.77L349.938 289.68Z" fill="#D8DCDE" stroke="#D8DCDE" stroke-linejoin="bevel"/>
<path d="M257.191 385.93L319.68 371.3L236.8 302.77L257.191 385.93Z" fill="#EBEDEE" stroke="#EBEDEE" stroke-linejoin="bevel"/>
<path d="M319.68 371.3L349.938 289.68L236.8 302.77L319.68 371.3Z" fill="#CBD1D4" stroke="#CBD1D4" stroke-linejoin="bevel"/>
<path d="M110.507 214.99L71.04 302.77L132.871 284.29L110.507 214.99Z" fill="#E5E7E9" stroke="#E5E7E9" stroke-linejoin="bevel"/>
<path d="M331.52 119.51L244.036 96.41L257.849 137.99L331.52 119.51Z" fill="#C5CBCF" stroke="#C5CBCF" stroke-linejoin="bevel"/>
<path d="M257.849 137.99L244.036 96.41L180.889 155.7L257.849 137.99Z" fill="#B9C0C5" stroke="#B9C0C5" stroke-linejoin="bevel"/>
<path d="M180.889 155.7L106.56 144.15L110.507 214.99L180.889 155.7Z" fill="#B3BBC0" stroke="#B3BBC0" stroke-linejoin="bevel"/>
<path d="M114.453 86.4L106.56 144.15L180.889 155.7L114.453 86.4Z" fill="#E5E7E9" stroke="#E5E7E9" stroke-linejoin="bevel"/>
<path d="M110.507 214.99L57.2267 218.84L71.04 302.77L110.507 214.99Z" fill="#B3BBC0" stroke="#B3BBC0" stroke-linejoin="bevel"/>
<path d="M151.289 456L182.204 393.63L143.396 378.23L151.289 456Z" fill="#CBD1D4" stroke="#CBD1D4" stroke-linejoin="bevel"/>
<path d="M151.289 456H190.756L182.204 393.63L151.289 456Z" fill="#CBD1D4" stroke="#CBD1D4" stroke-linejoin="bevel"/>
<path d="M182.204 393.63L190.756 456L257.191 385.93L182.204 393.63Z" fill="#C5CBCF" stroke="#C5CBCF" stroke-linejoin="bevel"/>
<path d="M257.191 385.93L311.787 456L319.68 371.3L257.191 385.93Z" fill="#D8DCDE" stroke="#D8DCDE" stroke-linejoin="bevel"/>
<path d="M349.938 289.68L378.222 280.44L346.649 252.72L349.938 289.68Z" fill="#CBD1D4" stroke="#CBD1D4" stroke-linejoin="bevel"/>
<path d="M346.649 252.72L331.52 119.51L257.849 137.99L346.649 252.72Z" fill="#BFC6CA" stroke="#BFC6CA" stroke-linejoin="bevel"/>
<path d="M374.933 370.53L378.222 280.44L349.938 289.68L374.933 370.53Z" fill="#C5CBCF" stroke="#C5CBCF" stroke-linejoin="bevel"/>
<path d="M106.56 144.15L57.2267 218.84L110.507 214.99L106.56 144.15Z" fill="#CBD1D4" stroke="#CBD1D4" stroke-linejoin="bevel"/>
<path d="M190.756 456H274.951L257.191 385.93L190.756 456Z" fill="#B3BBC0" stroke="#B3BBC0" stroke-linejoin="bevel"/>
<path d="M319.68 371.3L374.933 370.53L349.938 289.68L319.68 371.3Z" fill="#ADB5BB" stroke="#ADB5BB" stroke-linejoin="bevel"/>
<path d="M91.4311 456H151.289L143.396 378.23L91.4311 456Z" fill="#E5E7E9" stroke="#E5E7E9" stroke-linejoin="bevel"/>
<path d="M399.271 208.83L331.52 119.51L346.649 252.72L399.271 208.83Z" fill="#B9C0C5" stroke="#B9C0C5" stroke-linejoin="bevel"/>
<path d="M0 322.02L55.9111 349.74L71.04 302.77L0 322.02Z" fill="#B9C0C5" stroke="#B9C0C5" stroke-linejoin="bevel"/>
<path d="M71.04 302.77L55.9111 349.74L143.396 378.23L71.04 302.77Z" fill="#B3BBC0" stroke="#B3BBC0" stroke-linejoin="bevel"/>
<path d="M311.787 456L374.933 370.53L319.68 371.3L311.787 456Z" fill="#E5E7E9" stroke="#E5E7E9" stroke-linejoin="bevel"/>
<path d="M274.951 456H311.787L257.191 385.93L274.951 456Z" fill="#C5CBCF" stroke="#C5CBCF" stroke-linejoin="bevel"/>
<path d="M178.916 53.29L114.453 86.4L180.889 155.7L178.916 53.29Z" fill="#BFC6CA" stroke="#BFC6CA" stroke-linejoin="bevel"/>
<path d="M106.56 144.15L40.1245 125.67L57.2267 218.84L106.56 144.15Z" fill="#E5E7E9" stroke="#E5E7E9" stroke-linejoin="bevel"/>
<path d="M244.036 96.41L178.916 53.29L180.889 155.7L244.036 96.41Z" fill="#D8DCDE" stroke="#D8DCDE" stroke-linejoin="bevel"/>
<path d="M222.329 -6L178.916 53.29L244.036 96.41L222.329 -6Z" fill="#D8DCDE" stroke="#D8DCDE" stroke-linejoin="bevel"/>
<path d="M378.222 280.44L399.271 208.83L346.649 252.72L378.222 280.44Z" fill="#BFC6CA" stroke="#BFC6CA" stroke-linejoin="bevel"/>
<path d="M451.893 225.77L399.271 208.83L378.222 280.44L451.893 225.77Z" fill="#EBEDEE" stroke="#EBEDEE" stroke-linejoin="bevel"/>
<path d="M55.9111 349.74L91.4311 456L143.396 378.23L55.9111 349.74Z" fill="#EBEDEE" stroke="#EBEDEE" stroke-linejoin="bevel"/>
<path d="M399.271 208.83L404.533 168.02L331.52 119.51L399.271 208.83Z" fill="#CBD1D4" stroke="#CBD1D4" stroke-linejoin="bevel"/>
<path d="M404.533 168.02L342.702 74.08L331.52 119.51L404.533 168.02Z" fill="#E5E7E9" stroke="#E5E7E9" stroke-linejoin="bevel"/>
<path d="M331.52 119.51L342.702 74.08L244.036 96.41L331.52 119.51Z" fill="#E5E7E9" stroke="#E5E7E9" stroke-linejoin="bevel"/>
<path d="M88.8 63.3L40.1245 125.67L106.56 144.15L88.8 63.3Z" fill="#ADB5BB" stroke="#ADB5BB" stroke-linejoin="bevel"/>
<path d="M57.2267 218.84L0 223.46L71.04 302.77L57.2267 218.84Z" fill="#ADB5BB" stroke="#ADB5BB" stroke-linejoin="bevel"/>
<path d="M144.711 -6L88.8 63.3L114.453 86.4L144.711 -6Z" fill="#C5CBCF" stroke="#C5CBCF" stroke-linejoin="bevel"/>
<path d="M114.453 86.4L88.8 63.3L106.56 144.15L114.453 86.4Z" fill="#ADB5BB" stroke="#ADB5BB" stroke-linejoin="bevel"/>
<path d="M0 137.99V223.46L57.2267 218.84L0 137.99Z" fill="#D8DCDE" stroke="#D8DCDE" stroke-linejoin="bevel"/>
<path d="M55.9111 349.74L0 456H91.4311L55.9111 349.74Z" fill="#ADB5BB" stroke="#ADB5BB" stroke-linejoin="bevel"/>
<path d="M0 223.46V322.02L71.04 302.77L0 223.46Z" fill="#DEE2E4" stroke="#DEE2E4" stroke-linejoin="bevel"/>
<path d="M0 322.02V370.53L55.9111 349.74L0 322.02Z" fill="#CBD1D4" stroke="#CBD1D4" stroke-linejoin="bevel"/>
<path d="M311.787 456H391.378L374.933 370.53L311.787 456Z" fill="#B9C0C5" stroke="#B9C0C5" stroke-linejoin="bevel"/>
<path d="M457.813 318.17L451.893 225.77L378.222 280.44L457.813 318.17Z" fill="#C5CBCF" stroke="#C5CBCF" stroke-linejoin="bevel"/>
<path d="M399.271 208.83L451.893 225.77L404.533 168.02L399.271 208.83Z" fill="#CBD1D4" stroke="#CBD1D4" stroke-linejoin="bevel"/>
<path d="M288.764 -6H222.329L244.036 96.41L288.764 -6Z" fill="#C5CBCF" stroke="#C5CBCF" stroke-linejoin="bevel"/>
<path d="M178.916 53.29L144.711 -6L114.453 86.4L178.916 53.29Z" fill="#BFC6CA" stroke="#BFC6CA" stroke-linejoin="bevel"/>
<path d="M457.813 318.17L378.222 280.44L374.933 370.53L457.813 318.17Z" fill="#DEE2E4" stroke="#DEE2E4" stroke-linejoin="bevel"/>
<path d="M404.533 168.02L414.4 60.22L342.702 74.08L404.533 168.02Z" fill="#D1D7D9" stroke="#D1D7D9" stroke-linejoin="bevel"/>
<path d="M449.92 404.41L457.813 318.17L374.933 370.53L449.92 404.41Z" fill="#DEE2E4" stroke="#DEE2E4" stroke-linejoin="bevel"/>
<path d="M40.1244 125.67L0 137.99L57.2267 218.84L40.1244 125.67Z" fill="#E5E7E9" stroke="#E5E7E9" stroke-linejoin="bevel"/>
<path d="M0 60.99V137.99L40.1244 125.67L0 60.99Z" fill="#EBEDEE" stroke="#EBEDEE" stroke-linejoin="bevel"/>
<path d="M342.702 74.08L288.764 -6L244.036 96.41L342.702 74.08Z" fill="#D1D7D9" stroke="#D1D7D9" stroke-linejoin="bevel"/>
<path d="M317.049 -6H288.764L342.702 74.08L317.049 -6Z" fill="#EBEDEE" stroke="#EBEDEE" stroke-linejoin="bevel"/>
<path d="M222.329 -6H144.711L178.916 53.29L222.329 -6Z" fill="#D1D7D9" stroke="#D1D7D9" stroke-linejoin="bevel"/>
<path d="M88.8 63.3L0 60.99L40.1244 125.67L88.8 63.3Z" fill="#C5CBCF" stroke="#C5CBCF" stroke-linejoin="bevel"/>
<path d="M451.893 225.77L440.053 124.9L404.533 168.02L451.893 225.77Z" fill="#E5E7E9" stroke="#E5E7E9" stroke-linejoin="bevel"/>
<path d="M414.4 -6H317.049L342.702 74.08L414.4 -6Z" fill="#E5E7E9" stroke="#E5E7E9" stroke-linejoin="bevel"/>
<path d="M391.378 456L449.92 404.41L374.933 370.53L391.378 456Z" fill="#ADB5BB" stroke="#ADB5BB" stroke-linejoin="bevel"/>
<path d="M440.053 124.9L414.4 60.22L404.533 168.02L440.053 124.9Z" fill="#D8DCDE" stroke="#D8DCDE" stroke-linejoin="bevel"/>
<path d="M0 370.53V456L55.9111 349.74L0 370.53Z" fill="#E5E7E9" stroke="#E5E7E9" stroke-linejoin="bevel"/>
<path d="M391.378 456H440.053L449.92 404.41L391.378 456Z" fill="#CBD1D4" stroke="#CBD1D4" stroke-linejoin="bevel"/>
<path d="M144.711 -6H67.7511L88.8 63.3L144.711 -6Z" fill="#E5E7E9" stroke="#E5E7E9" stroke-linejoin="bevel"/>
<path d="M67.7511 -6L0 60.99L88.8 63.3L67.7511 -6Z" fill="#B3BBC0" stroke="#B3BBC0" stroke-linejoin="bevel"/>
<path d="M457.813 318.17L515.04 240.4L451.893 225.77L457.813 318.17Z" fill="#BFC6CA" stroke="#BFC6CA" stroke-linejoin="bevel"/>
<path d="M451.893 225.77L510.436 151.08L440.053 124.9L451.893 225.77Z" fill="#D1D7D9" stroke="#D1D7D9" stroke-linejoin="bevel"/>
<path d="M442.684 -6H414.4V60.22L442.684 -6Z" fill="#D1D7D9" stroke="#D1D7D9" stroke-linejoin="bevel"/>
<path d="M542.667 322.79L515.04 240.4L457.813 318.17L542.667 322.79Z" fill="#B9C0C5" stroke="#B9C0C5" stroke-linejoin="bevel"/>
<path d="M542.667 322.79L457.813 318.17L549.902 365.91L542.667 322.79Z" fill="#ADB5BB" stroke="#ADB5BB" stroke-linejoin="bevel"/>
<path d="M482.151 66.38L414.4 60.22L440.053 124.9L482.151 66.38Z" fill="#D8DCDE" stroke="#D8DCDE" stroke-linejoin="bevel"/>
<path d="M414.4 60.22V-6L342.702 74.08L414.4 60.22Z" fill="#CBD1D4" stroke="#CBD1D4" stroke-linejoin="bevel"/>
<path d="M515.04 240.4L510.436 151.08L451.893 225.77L515.04 240.4Z" fill="#ADB5BB" stroke="#ADB5BB" stroke-linejoin="bevel"/>
<path d="M510.436 151.08L482.151 66.38L440.053 124.9L510.436 151.08Z" fill="#D8DCDE" stroke="#D8DCDE" stroke-linejoin="bevel"/>
<path d="M67.7511 -6H0V60.99L67.7511 -6Z" fill="#B9C0C5" stroke="#B9C0C5" stroke-linejoin="bevel"/>
<path d="M482.151 66.38L442.684 -6L414.4 60.22L482.151 66.38Z" fill="#EBEDEE" stroke="#EBEDEE" stroke-linejoin="bevel"/>
<path d="M549.902 365.91L457.813 318.17L449.92 404.41L549.902 365.91Z" fill="#CBD1D4" stroke="#CBD1D4" stroke-linejoin="bevel"/>
<path d="M592 129.52L532.8 58.68L510.436 151.08L592 129.52Z" fill="#DEE2E4" stroke="#DEE2E4" stroke-linejoin="bevel"/>
<path d="M543.324 456L549.902 365.91L449.92 404.41L543.324 456Z" fill="#D1D7D9" stroke="#D1D7D9" stroke-linejoin="bevel"/>
<path d="M440.053 456H543.324L449.92 404.41L440.053 456Z" fill="#ADB5BB" stroke="#ADB5BB" stroke-linejoin="bevel"/>
<path d="M510.436 151.08L532.8 58.68L482.151 66.38L510.436 151.08Z" fill="#C5CBCF" stroke="#C5CBCF" stroke-linejoin="bevel"/>
<path d="M482.151 66.38L519.644 -6H442.684L482.151 66.38Z" fill="#D8DCDE" stroke="#D8DCDE" stroke-linejoin="bevel"/>
<path d="M592 231.93L510.436 151.08L515.04 240.4L592 231.93Z" fill="#BFC6CA" stroke="#BFC6CA" stroke-linejoin="bevel"/>
<path d="M592 277.36L515.04 240.4L542.667 322.79L592 277.36Z" fill="#D1D7D9" stroke="#D1D7D9" stroke-linejoin="bevel"/>
<path d="M592 358.98L542.667 322.79L549.902 365.91L592 358.98Z" fill="#EBEDEE" stroke="#EBEDEE" stroke-linejoin="bevel"/>
<path d="M592 358.98V277.36L542.667 322.79L592 358.98Z" fill="#B9C0C5" stroke="#B9C0C5" stroke-linejoin="bevel"/>
<path d="M592 277.36V231.93L515.04 240.4L592 277.36Z" fill="#EBEDEE" stroke="#EBEDEE" stroke-linejoin="bevel"/>
<path d="M592 456V358.98L549.902 365.91L592 456Z" fill="#D8DCDE" stroke="#D8DCDE" stroke-linejoin="bevel"/>
<path d="M592 -6H519.644L532.8 58.68L592 -6Z" fill="#C5CBCF" stroke="#C5CBCF" stroke-linejoin="bevel"/>
<path d="M532.8 58.68L519.644 -6L482.151 66.38L532.8 58.68Z" fill="#EBEDEE" stroke="#EBEDEE" stroke-linejoin="bevel"/>
<path d="M592 231.93V129.52L510.436 151.08L592 231.93Z" fill="#D1D7D9" stroke="#D1D7D9" stroke-linejoin="bevel"/>
<path d="M543.324 456H592L549.902 365.91L543.324 456Z" fill="#BFC6CA" stroke="#BFC6CA" stroke-linejoin="bevel"/>
<path d="M592 129.52V58.68H532.8L592 129.52Z" fill="#B3BBC0" stroke="#B3BBC0" stroke-linejoin="bevel"/>
<path d="M592 58.68V-6L532.8 58.68H592Z" fill="#CBD1D4" stroke="#CBD1D4" stroke-linejoin="bevel"/>
<g clip-path="url(#clip2)">
<path d="M0 47.6129L14.1422 44.7592C28.2844 41.9604 56.5689 36.2529 84.7218 32.9053C112.94 29.5027 140.962 28.4051 169.18 27.4173C197.333 26.3746 225.618 25.4965 253.771 28.021C281.989 30.6003 310.011 36.6371 338.229 40.2042C366.382 43.7714 394.667 44.869 422.82 42.9482C451.038 41.0274 479.06 36.0883 507.278 32.6309C535.431 29.1186 563.716 27.1429 577.858 26.1002L592 25.1124V-3.97369H577.858C563.716 -3.97369 535.431 -3.97369 507.278 -3.97369C479.06 -3.97369 451.038 -3.97369 422.82 -3.97369C394.667 -3.97369 366.382 -3.97369 338.229 -3.97369C310.011 -3.97369 281.989 -3.97369 253.771 -3.97369C225.618 -3.97369 197.333 -3.97369 169.18 -3.97369C140.962 -3.97369 112.94 -3.97369 84.7218 -3.97369C56.5689 -3.97369 28.2844 -3.97369 14.1422 -3.97369H0V47.6129Z" fill="#FA7268"/>
<path d="M0 21.8196L14.1422 23.466C28.2844 25.1124 56.5689 28.4051 84.7218 27.7466C112.94 27.1429 140.962 22.5331 169.18 19.7342C197.333 16.8805 225.618 15.7829 253.771 18.3622C281.989 20.8867 310.011 27.1429 338.229 29.8869C366.382 32.6309 394.667 31.8625 422.82 31.2589C451.038 30.6003 479.06 30.0515 507.278 28.5698C535.431 27.1429 563.716 24.7282 577.858 23.5758L592 22.3684V-3.97369H577.858C563.716 -3.97369 535.431 -3.97369 507.278 -3.97369C479.06 -3.97369 451.038 -3.97369 422.82 -3.97369C394.667 -3.97369 366.382 -3.97369 338.229 -3.97369C310.011 -3.97369 281.989 -3.97369 253.771 -3.97369C225.618 -3.97369 197.333 -3.97369 169.18 -3.97369C140.962 -3.97369 112.94 -3.97369 84.7218 -3.97369C56.5689 -3.97369 28.2844 -3.97369 14.1422 -3.97369H0V21.8196Z" fill="#E34C67"/>
<path d="M0 18.5269L14.1422 18.2525C28.2844 17.9781 56.5689 17.4293 84.7218 16.2219C112.94 15.0695 140.962 13.2036 169.18 12.6548C197.333 12.106 225.618 12.8743 253.771 11.5572C281.989 10.2949 310.011 7.00218 338.229 6.01436C366.382 4.97165 394.667 6.28875 422.82 8.75833C451.038 11.2279 479.06 14.8499 507.278 16.3317C535.431 17.8134 563.716 17.0451 577.858 16.7158L592 16.3317V-3.97369H577.858C563.716 -3.97369 535.431 -3.97369 507.278 -3.97369C479.06 -3.97369 451.038 -3.97369 422.82 -3.97369C394.667 -3.97369 366.382 -3.97369 338.229 -3.97369C310.011 -3.97369 281.989 -3.97369 253.771 -3.97369C225.618 -3.97369 197.333 -3.97369 169.18 -3.97369C140.962 -3.97369 112.94 -3.97369 84.7218 -3.97369C56.5689 -3.97369 28.2844 -3.97369 14.1422 -3.97369H0V18.5269Z" fill="#C62368"/>
</g>
</g>
</g>
<defs>
<clipPath id="clip0">
<rect width="592" height="456" fill="white"/>
</clipPath>
<clipPath id="clip1">
<rect width="592" height="462" fill="white" transform="translate(0 -6)"/>
</clipPath>
<clipPath id="clip2">
<rect width="592" height="329.276" fill="white" transform="translate(0 -3.97369)"/>
</clipPath>
</defs>
</svg>
